<?xml version="1.0" encoding="UTF-8"?>
<svg width="16px" height="16px" viewBox="0 0 16 16" version="1.1" xmlns="http://www.w3.org/2000/svg" xmlns:xlink="http://www.w3.org/1999/xlink">
    <!-- Generator: Sketch 63.1 (92452) - https://sketch.com -->
    <title>Rectangle Copy 7</title>
    <desc>Created with Sketch.</desc>
    <defs>
        <path d="M16.5,9 C16.5,8.76566038 16.3098113,8.5754717 16.0754717,8.5754717 L15.6851887,8.5754717 L16.0924528,8.16820755 C16.2583019,8.00235849 16.2583019,7.73377358 16.0924528,7.56792453 C15.9266038,7.40207547 15.6580189,7.40207547 15.4921698,7.56792453 L14.4846226,8.5754717 L13.4210377,8.5754717 L13.8283019,8.16820755 C13.9941509,8.00235849 13.9941509,7.73377358 13.8283019,7.56792453 C13.6624528,7.40207547 13.3938679,7.40207547 13.2280189,7.56792453 L12.2204717,8.5754717 L10.0248113,8.5754717 L12.855,5.74528302 L14.3773585,5.74528302 C14.6116981,5.74528302 14.8018868,5.55509434 14.8018868,5.32075472 C14.8018868,5.08641509 14.6116981,4.89622642 14.3773585,4.89622642 L13.7040566,4.89622642 L14.3943396,4.2059434 C14.5601887,4.04009434 14.5601887,3.77150943 14.3943396,3.60566038 C14.2284906,3.43981132 13.9599057,3.43981132 13.7940566,3.60566038 L13.1037736,4.2959434 L13.1037736,3.62264151 C13.1037736,3.38830189 12.9135849,3.19811321 12.6792453,3.19811321 C12.4449057,3.19811321 12.254717,3.38830189 12.254717,3.62264151 L12.254717,5.145 L9.4245283,7.97518868 L9.4245283,5.7795283 L10.4323585,4.77169811 C10.5982075,4.60584906 10.5982075,4.33726415 10.4323585,4.17141509 C10.2665094,4.00556604 9.99792453,4.00556604 9.83207547,4.17141509 L9.4245283,4.57896226 L9.4245283,3.51537736 L10.4323585,2.50754717 C10.5982075,2.34169811 10.5982075,2.07311321 10.4323585,1.90726415 C10.2665094,1.74141509 9.99792453,1.74141509 9.83207547,1.90726415 L9.4245283,2.31481132 L9.4245283,1.9245283 C9.4245283,1.69018868 9.23433962,1.5 9,1.5 C8.76566038,1.5 8.5754717,1.69018868 8.5754717,1.9245283 L8.5754717,2.31481132 L8.16820755,1.90754717 C8.00235849,1.74169811 7.73377358,1.74169811 7.56792453,1.90754717 C7.40207547,2.07339623 7.40207547,2.34198113 7.56792453,2.50783019 L8.5754717,3.51537736 L8.5754717,4.57896226 L8.16820755,4.17169811 C8.00235849,4.00584906 7.73377358,4.00584906 7.56792453,4.17169811 C7.40207547,4.33754717 7.40207547,4.60613208 7.56792453,4.77198113 L8.5754717,5.7795283 L8.5754717,7.97518868 L5.74528302,5.145 L5.74528302,3.62264151 C5.74528302,3.38830189 5.55509434,3.19811321 5.32075472,3.19811321 C5.08641509,3.19811321 4.89622642,3.38830189 4.89622642,3.62264151 L4.89622642,4.2959434 L4.2059434,3.60537736 C4.04009434,3.4395283 3.77150943,3.4395283 3.60566038,3.60537736 C3.43981132,3.77122642 3.43981132,4.03981132 3.60566038,4.20566038 L4.2959434,4.89622642 L3.62264151,4.89622642 C3.38830189,4.89622642 3.19811321,5.08641509 3.19811321,5.32075472 C3.19811321,5.55509434 3.38830189,5.74528302 3.62264151,5.74528302 L5.145,5.74528302 L7.97518868,8.5754717 L5.7795283,8.5754717 L4.77169811,7.56764151 C4.60584906,7.40179245 4.33726415,7.40179245 4.17141509,7.56764151 C4.00556604,7.73349057 4.00556604,8.00207547 4.17141509,8.16792453 L4.57896226,8.5754717 L3.51537736,8.5754717 L2.50754717,7.56764151 C2.34169811,7.40179245 2.07311321,7.40179245 1.90726415,7.56764151 C1.74141509,7.73349057 1.74141509,8.00207547 1.90726415,8.16792453 L2.31481132,8.5754717 L1.9245283,8.5754717 C1.69018868,8.5754717 1.5,8.76566038 1.5,9 C1.5,9.23433962 1.69018868,9.4245283 1.9245283,9.4245283 L2.31481132,9.4245283 L1.90754717,9.83179245 C1.74169811,9.99764151 1.74169811,10.2662264 1.90754717,10.4320755 C1.99018868,10.515283 2.09886792,10.5566038 2.20754717,10.5566038 C2.31622642,10.5566038 2.42490566,10.515283 2.50783019,10.4323585 L3.51537736,9.4245283 L4.57896226,9.4245283 L4.17169811,9.83179245 C4.00584906,9.99764151 4.00584906,10.2662264 4.17169811,10.4320755 C4.25433962,10.515283 4.36301887,10.5566038 4.47169811,10.5566038 C4.58037736,10.5566038 4.6890566,10.515283 4.77198113,10.4323585 L5.7795283,9.4245283 L7.97518868,9.4245283 L5.145,12.254717 L3.62264151,12.254717 C3.38830189,12.254717 3.19811321,12.4449057 3.19811321,12.6792453 C3.19811321,12.9135849 3.38830189,13.1037736 3.62264151,13.1037736 L4.2959434,13.1037736 L3.60566038,13.7940566 C3.43981132,13.9599057 3.43981132,14.2284906 3.60566038,14.3943396 C3.68830189,14.4775472 3.79698113,14.5188679 3.90566038,14.5188679 C4.01433962,14.5188679 4.12301887,14.4775472 4.2059434,14.3946226 L4.89622642,13.7040566 L4.89622642,14.3773585 C4.89622642,14.6116981 5.08641509,14.8018868 5.32075472,14.8018868 C5.55509434,14.8018868 5.74528302,14.6116981 5.74528302,14.3773585 L5.74528302,12.855 L8.5754717,10.0248113 L8.5754717,12.2204717 L7.56764151,13.2283019 C7.40179245,13.3941509 7.40179245,13.6627358 7.56764151,13.8285849 C7.65056604,13.9115094 7.75924528,13.9528302 7.86792453,13.9528302 C7.97660377,13.9528302 8.08528302,13.9115094 8.16820755,13.8285849 L8.5754717,13.4210377 L8.5754717,14.4846226 L7.56764151,15.4924528 C7.40179245,15.6583019 7.40179245,15.9268868 7.56764151,16.0927358 C7.65056604,16.1756604 7.75924528,16.2169811 7.86792453,16.2169811 C7.97660377,16.2169811 8.08528302,16.1756604 8.16820755,16.0927358 L8.5754717,15.6851887 L8.5754717,16.0754717 C8.5754717,16.3098113 8.76566038,16.5 9,16.5 C9.23433962,16.5 9.4245283,16.3098113 9.4245283,16.0754717 L9.4245283,15.6851887 L9.83179245,16.0924528 C9.91471698,16.1756604 10.0233962,16.2169811 10.1320755,16.2169811 C10.2407547,16.2169811 10.349434,16.1756604 10.4323585,16.0927358 C10.5982075,15.9268868 10.5982075,15.6583019 10.4323585,15.4924528 L9.4245283,14.4846226 L9.4245283,13.4210377 L9.83179245,13.8283019 C9.91471698,13.9115094 10.0233962,13.9528302 10.1320755,13.9528302 C10.2407547,13.9528302 10.349434,13.9115094 10.4323585,13.8285849 C10.5982075,13.6627358 10.5982075,13.3941509 10.4323585,13.2283019 L9.4245283,12.2204717 L9.4245283,10.0248113 L12.254717,12.855 L12.254717,14.3773585 C12.254717,14.6116981 12.4449057,14.8018868 12.6792453,14.8018868 C12.9135849,14.8018868 13.1037736,14.6116981 13.1037736,14.3773585 L13.1037736,13.7040566 L13.7940566,14.3943396 C13.8769811,14.4775472 13.9856604,14.5188679 14.0943396,14.5188679 C14.2030189,14.5188679 14.3116981,14.4775472 14.3946226,14.3946226 C14.5604717,14.2287736 14.5604717,13.9601887 14.3946226,13.7943396 L13.7040566,13.1037736 L14.3773585,13.1037736 C14.6116981,13.1037736 14.8018868,12.9135849 14.8018868,12.6792453 C14.8018868,12.4449057 14.6116981,12.254717 14.3773585,12.254717 L12.855,12.254717 L10.0248113,9.4245283 L12.2204717,9.4245283 L13.2283019,10.4323585 C13.3109434,10.515283 13.4196226,10.5566038 13.5283019,10.5566038 C13.6369811,10.5566038 13.7456604,10.515283 13.8285849,10.4323585 C13.994434,10.2665094 13.994434,9.99792453 13.8285849,9.83207547 L13.4210377,9.4245283 L14.4846226,9.4245283 L15.4924528,10.4323585 C15.5750943,10.515283 15.6837736,10.5566038 15.7924528,10.5566038 C15.9011321,10.5566038 16.0098113,10.515283 16.0927358,10.4323585 C16.2585849,10.2665094 16.2585849,9.99792453 16.0927358,9.83207547 L15.6851887,9.4245283 L16.0754717,9.4245283 C16.3098113,9.4245283 16.5,9.23433962 16.5,9 Z" id="path-1"></path>
    </defs>
    <g id="Overview" stroke="none" stroke-width="1" fill="none" fill-rule="evenodd">
        <g id="Overview_01" transform="translate(-1051.000000, -423.000000)">
            <g id="Group-20-Copy-2" transform="translate(1043.000000, -1.000000)">
                <g id="Rectangle" transform="translate(7.000000, 423.000000)">
                    <rect x="0" y="0" width="18" height="18"></rect>
                    <g id="snowflake" stroke-width="1" fill-rule="evenodd">
                        <mask id="mask-2" fill="white">
                            <use xlink:href="#path-1"></use>
                        </mask>
                        <use id="Path" fill="#000000" fill-rule="nonzero" xlink:href="#path-1"></use>
                        <g id="Color/White" mask="url(#mask-2)" fill="#FFFFFF">
                            <rect id="Rectangle" x="0" y="0" width="18" height="18"></rect>
                        </g>
                    </g>
                </g>
            </g>
        </g>
    </g>
</svg>