<svg width="24" height="24" viewBox="0 0 24 24" fill="none" xmlns="http://www.w3.org/2000/svg">
<mask id="mask0" mask-type="alpha" maskUnits="userSpaceOnUse" x="2" y="1" width="17" height="22">
<path fill-rule="evenodd" clip-rule="evenodd" d="M15.49 3.48C15.49 4.58 14.59 5.48 13.49 5.48C12.39 5.48 11.49 4.58 11.49 3.48C11.49 2.38 12.39 1.48 13.49 1.48C14.59 1.48 15.49 2.38 15.49 3.48ZM10.89 14.98L9.89001 19.38L2.89001 17.98L3.29001 15.98L8.19001 16.98L9.79001 8.88L7.99001 9.58V12.98H5.99001V8.28L11.19 6.08C11.34 6.08 11.465 6.055 11.59 6.03C11.715 6.005 11.84 5.98 11.99 5.98C12.69 5.98 13.29 6.38 13.69 6.98L14.69 8.58C15.49 9.98 17.09 10.98 18.99 10.98V12.98C16.79 12.98 14.79 11.98 13.49 10.48L12.89 13.48L14.99 15.48V22.98H12.99V16.98L10.89 14.98Z" fill="white"/>
</mask>
<g mask="url(#mask0)">
<rect width="24" height="24" fill="white"/>
</g>
</svg>
