<svg width="320" height="182" viewBox="0 0 320 182" fill="none" xmlns="http://www.w3.org/2000/svg">
<path fill-rule="evenodd" clip-rule="evenodd" d="M107.813 14.9525C108.842 6.97361 115.636 1 123.681 1H198.319C206.364 1 213.158 6.97362 214.187 14.9525L220 60H102L107.813 14.9525Z" stroke="white"/>
<mask id="mask0" mask-type="alpha" maskUnits="userSpaceOnUse" x="116" y="15" width="90" height="32">
<rect x="116" y="15" width="90" height="32" rx="16" fill="white"/>
</mask>
<g mask="url(#mask0)">
<rect x="116" y="15" width="90" height="32" fill="#4E4E51"/>
</g>
<path d="M154.897 32.6846C154.847 33.8193 154.528 34.6784 153.94 35.2617C153.353 35.8451 152.523 36.1367 151.452 36.1367C150.326 36.1367 149.463 35.7676 148.861 35.0293C148.264 34.2865 147.966 33.2292 147.966 31.8574V30.1826C147.966 28.8154 148.276 27.7627 148.896 27.0244C149.515 26.2816 150.377 25.9102 151.479 25.9102C152.564 25.9102 153.387 26.2132 153.947 26.8193C154.512 27.4255 154.834 28.2959 154.911 29.4307H152.895C152.876 28.7288 152.767 28.2458 152.566 27.9814C152.37 27.7126 152.008 27.5781 151.479 27.5781C150.942 27.5781 150.561 27.7673 150.338 28.1455C150.115 28.5192 149.996 29.1367 149.982 29.998V31.8779C149.982 32.8669 150.092 33.5459 150.311 33.915C150.534 34.2842 150.914 34.4688 151.452 34.4688C151.981 34.4688 152.345 34.3411 152.546 34.0859C152.746 33.8262 152.86 33.359 152.888 32.6846H154.897ZM159.395 34.332H162.922V36H157.385V26.0469H159.395V34.332ZM171.903 31.9189C171.903 33.2542 171.587 34.291 170.953 35.0293C170.324 35.7676 169.449 36.1367 168.328 36.1367C167.212 36.1367 166.334 35.7721 165.696 35.043C165.058 34.3092 164.735 33.2839 164.726 31.9668V30.2646C164.726 28.8975 165.042 27.8311 165.676 27.0654C166.309 26.2952 167.189 25.9102 168.314 25.9102C169.422 25.9102 170.295 26.2884 170.933 27.0449C171.571 27.7969 171.894 28.8542 171.903 30.2168V31.9189ZM169.887 30.251C169.887 29.3532 169.759 28.6855 169.504 28.248C169.249 27.8105 168.852 27.5918 168.314 27.5918C167.781 27.5918 167.387 27.8037 167.132 28.2275C166.877 28.6468 166.744 29.2871 166.735 30.1484V31.9189C166.735 32.7894 166.865 33.432 167.125 33.8467C167.385 34.2568 167.786 34.4619 168.328 34.4619C168.852 34.4619 169.242 34.2614 169.497 33.8604C169.752 33.4548 169.882 32.8281 169.887 31.9805V30.251ZM178.8 33.3887C178.8 32.9831 178.695 32.6777 178.485 32.4727C178.28 32.263 177.904 32.0465 177.357 31.8232C176.359 31.445 175.642 31.0029 175.204 30.4971C174.767 29.9867 174.548 29.3851 174.548 28.6924C174.548 27.8538 174.844 27.1816 175.437 26.6758C176.034 26.1654 176.79 25.9102 177.706 25.9102C178.317 25.9102 178.861 26.04 179.34 26.2998C179.818 26.555 180.185 26.9173 180.44 27.3867C180.7 27.8561 180.83 28.3893 180.83 28.9863H178.827C178.827 28.5215 178.727 28.1683 178.526 27.9268C178.33 27.6807 178.046 27.5576 177.672 27.5576C177.321 27.5576 177.048 27.6624 176.852 27.8721C176.656 28.0771 176.558 28.3551 176.558 28.7061C176.558 28.9795 176.667 29.2279 176.886 29.4512C177.104 29.6699 177.492 29.8978 178.048 30.1348C179.019 30.4857 179.723 30.9163 180.16 31.4268C180.602 31.9372 180.823 32.5866 180.823 33.375C180.823 34.2409 180.548 34.9176 179.996 35.4053C179.445 35.8929 178.695 36.1367 177.747 36.1367C177.104 36.1367 176.519 36.0046 175.99 35.7402C175.462 35.4759 175.047 35.0977 174.746 34.6055C174.45 34.1133 174.302 33.5322 174.302 32.8623H176.318C176.318 33.4365 176.43 33.8535 176.653 34.1133C176.877 34.373 177.241 34.5029 177.747 34.5029C178.449 34.5029 178.8 34.1315 178.8 33.3887ZM188.547 31.6934H185.416V34.332H189.121V36H183.406V26.0469H189.107V27.7217H185.416V30.0732H188.547V31.6934ZM191.533 36V26.0469H194.165C195.327 26.0469 196.252 26.416 196.94 27.1543C197.633 27.8926 197.986 28.9043 198 30.1895V31.8027C198 33.1107 197.654 34.1383 196.961 34.8857C196.273 35.6286 195.323 36 194.11 36H191.533ZM193.543 27.7217V34.332H194.145C194.814 34.332 195.286 34.1566 195.56 33.8057C195.833 33.4502 195.977 32.8395 195.99 31.9736V30.2441C195.99 29.3145 195.86 28.6673 195.601 28.3027C195.341 27.9336 194.899 27.7399 194.274 27.7217H193.543Z" fill="white"/>
<g filter="url(#filter0_b)">
<rect x="120" y="19" width="24" height="24" rx="12" fill="white" fill-opacity="0.24" style="mix-blend-mode:screen"/>
</g>
<mask id="mask1" mask-type="alpha" maskUnits="userSpaceOnUse" x="120" y="19" width="24" height="24">
<rect x="120" y="19" width="24" height="24" rx="12" fill="white"/>
<rect x="120" y="19" width="24" height="24" rx="12" stroke="white"/>
</mask>
<g mask="url(#mask1)">
</g>
<mask id="mask2" mask-type="alpha" maskUnits="userSpaceOnUse" x="125" y="24" width="14" height="14">
<path fill-rule="evenodd" clip-rule="evenodd" d="M131.25 24.25H132.75V31.75H131.25V24.25ZM135.307 26.9425L136.372 25.8775C137.828 27.115 138.75 28.945 138.75 31C138.75 34.7275 135.727 37.75 132 37.75C128.273 37.75 125.25 34.7275 125.25 31C125.25 28.945 126.173 27.115 127.628 25.8775L128.685 26.935C127.507 27.895 126.75 29.3575 126.75 31C126.75 33.9025 129.098 36.25 132 36.25C134.903 36.25 137.25 33.9025 137.25 31C137.25 29.3575 136.493 27.895 135.307 26.9425Z" fill="white"/>
</mask>
<g mask="url(#mask2)">
<rect x="123" y="22" width="18" height="18" fill="white"/>
</g>
<path fill-rule="evenodd" clip-rule="evenodd" d="M106.929 107.31C108.494 114.707 115.022 120 122.583 120H199.417C206.978 120 213.506 114.707 215.071 107.31L220 84H102L106.929 107.31Z" stroke="white"/>
<rect x="99" y="60" width="124" height="12" stroke="white"/>
<rect x="99" y="72" width="124" height="12" stroke="white"/>
<rect x="127" y="120" width="68" height="10" stroke="white"/>
<rect x="143" y="130" width="34" height="12" stroke="white"/>
<rect x="113" y="142" width="94" height="36" stroke="white"/>
<rect x="-1" y="142" width="94" height="36" stroke="white"/>
<g opacity="0.48">
<path d="M-62 162.998C-40.1346 162.998 -34.25 148 -6.5 148C21.25 148 20.8019 162.998 49 162.998" stroke="#32C5FF" stroke-width="2"/>
<path d="M49 162.998C70.8654 162.998 76.75 148 104.5 148C132.25 148 131.802 162.998 160 162.998" stroke="#32C5FF" stroke-width="2"/>
<g opacity="0.54">
<path d="M-81 167.998C-59.1346 167.998 -53.25 153 -25.5 153C2.25 153 1.80194 167.998 30 167.998" stroke="white"/>
<path d="M30 167.998C51.8654 167.998 57.75 153 85.5 153C113.25 153 112.802 167.998 141 167.998" stroke="white"/>
</g>
<g opacity="0.24">
<path d="M-104 171.998C-82.1346 171.998 -76.25 157 -48.5 157C-20.75 157 -21.1981 171.998 7 171.998" stroke="white"/>
<path d="M7 171.998C28.8654 171.998 34.75 157 62.5 157C90.25 157 89.8019 171.998 118 171.998" stroke="white"/>
</g>
</g>
<rect x="227" y="142" width="97" height="36" stroke="white"/>
<rect x="93" y="139" width="20" height="14" stroke="white"/>
<rect x="207" y="139" width="20" height="14" stroke="white"/>
<rect x="93" y="153" width="20" height="14" stroke="white"/>
<rect x="207" y="153" width="20" height="14" stroke="white"/>
<rect x="93" y="167" width="20" height="14" stroke="white"/>
<rect x="207" y="167" width="20" height="14" stroke="white"/>
<defs>
<filter id="filter0_b" x="22.1419" y="-78.8581" width="219.716" height="219.716" filterUnits="userSpaceOnUse" color-interpolation-filters="sRGB">
<feFlood flood-opacity="0" result="BackgroundImageFix"/>
<feGaussianBlur in="BackgroundImage" stdDeviation="48.9291"/>
<feComposite in2="SourceAlpha" operator="in" result="effect1_backgroundBlur"/>
<feBlend mode="normal" in="SourceGraphic" in2="effect1_backgroundBlur" result="shape"/>
</filter>
</defs>
</svg>
