<?xml version="1.0" encoding="UTF-8"?>
<svg width="25px" height="25px" viewBox="0 0 25 25" version="1.1" xmlns="http://www.w3.org/2000/svg" xmlns:xlink="http://www.w3.org/1999/xlink">
    <title>Combined Shape</title>
    <g id="Overview" stroke="none" stroke-width="1" fill="none" fill-rule="evenodd">
        <g id="Overview_01" transform="translate(-474.000000, -954.000000)" fill="#FFFFFF" fill-rule="nonzero">
            <g id="Combined-Shape-2" transform="translate(474.000000, 954.000000)">
                <path d="M18.1007559,-8.8817842e-15 C21.9051295,-8.8817842e-15 25,3.0950184 25,6.89909619 L25,6.89909619 L25,18.1009038 C25,21.9049816 21.9051295,25 18.1007559,25 L18.1007559,25 L6.89894831,25 C3.09487052,25 -8.8817842e-15,21.9051295 -8.8817842e-15,18.1009038 L-8.8817842e-15,18.1009038 L-8.8817842e-15,6.89909619 C-8.8817842e-15,3.0950184 3.09487052,-8.8817842e-15 6.89894831,-8.8817842e-15 L6.89894831,-8.8817842e-15 Z M18.1007559,2.21812116 L6.89894831,2.21812116 C4.31794253,2.21812116 2.21812116,4.3180904 2.21812116,6.89909619 L2.21812116,6.89909619 L2.21812116,18.1009038 C2.21812116,20.6820575 4.31794253,22.7818788 6.89894831,22.7818788 L6.89894831,22.7818788 L18.1009038,22.7818788 C20.6820575,22.7818788 22.7820267,20.6820575 22.7820267,18.1009038 L22.7820267,18.1009038 L22.7820267,6.89909619 C22.7820267,4.3180904 20.6819096,2.21812116 18.1007559,2.21812116 L18.1007559,2.21812116 Z M12.5,6.05842827 C16.0520992,6.05842827 18.9418675,8.94819652 18.9418675,12.5002957 C18.9418675,16.0522471 16.0520992,18.9418675 12.5,18.9418675 C8.94790077,18.9418675 6.05813252,16.0522471 6.05813252,12.5002957 C6.05813252,8.94819652 8.94790077,6.05842827 12.5,6.05842827 Z M12.5,8.27640156 C10.1709728,8.27640156 8.27625368,10.1711207 8.27625368,12.5001479 C8.27625368,14.8290272 10.1711207,16.7235984 12.5,16.7235984 C14.8288793,16.7235984 16.7237463,14.8290272 16.7237463,12.5001479 C16.7237463,10.1711207 14.8290272,8.27640156 12.5,8.27640156 Z M19.2120346,4.1776094 C19.6408714,4.1776094 20.0608357,4.35062285 20.3625001,4.65376607 C20.6656434,4.95543055 20.8386568,5.37539483 20.8386568,5.80423158 C20.8386568,6.23158959 20.6656434,6.65155387 20.3625001,6.95469709 C20.0593569,7.25636157 19.6408714,7.43085377 19.2120346,7.43085377 C18.7846766,7.43085377 18.3647124,7.25636157 18.0630479,6.95469709 C17.7599047,6.65155387 17.5854125,6.23173747 17.5854125,5.80423158 C17.5854125,5.37539483 17.7597568,4.95543055 18.0630479,4.65376607 C18.3648602,4.35062285 18.7846766,4.1776094 19.2120346,4.1776094 Z" id="Combined-Shape"></path>
            </g>
        </g>
    </g>
</svg>