<svg width="222" height="75" viewBox="0 0 222 75" fill="none" xmlns="http://www.w3.org/2000/svg">
<path fill-rule="evenodd" clip-rule="evenodd" d="M119.251 5.95814C119.249 5.49562 119.246 5.01722 119.246 4.51614C118.96 4.71169 118.704 4.90102 118.464 5.07846C117.977 5.43785 117.557 5.74845 117.092 5.96311C115.68 6.61524 115.03 7.60337 115.3 9.16776C115.4 9.74763 115.129 10.0403 114.518 9.98969C114.36 9.97605 114.201 9.98199 114.042 9.98794C113.969 9.99065 113.897 9.99336 113.824 9.99421C113.008 10.0024 112.625 9.93721 112.446 10.0982C112.269 10.2573 112.29 10.6373 112.287 11.527C112.28 13.4129 112.282 13.4129 114.155 13.4346H114.155C115.295 13.448 115.295 13.4481 115.314 14.5562L115.314 14.5826C115.328 15.3385 115.336 16.0949 115.345 16.8513C115.366 18.8117 115.387 20.7726 115.501 22.7279C115.625 24.8342 116.555 26.5648 118.746 27.1645C119.709 27.4284 120.731 27.4906 121.743 27.5521C121.915 27.5626 122.088 27.5731 122.259 27.5845C122.453 27.5981 122.831 27.2214 122.852 26.9992C122.897 26.5366 122.892 26.0698 122.887 25.6025C122.884 25.2878 122.88 24.973 122.892 24.659C122.915 24.0836 122.652 23.9274 122.116 23.9003C119.905 23.7874 119.346 23.2653 119.282 21.0741C119.242 19.6934 119.244 18.3118 119.247 16.9302C119.249 16.0268 119.25 15.1235 119.24 14.2204C119.233 13.599 119.518 13.4084 120.085 13.4247C120.146 13.4263 120.207 13.4281 120.268 13.4298C120.931 13.4488 121.596 13.4679 122.251 13.3976C122.478 13.3732 122.825 13.0354 122.847 12.8132C122.924 12.0689 122.919 11.3093 122.854 10.5623C122.836 10.36 122.51 10.0448 122.301 10.0231C121.614 9.95356 120.912 9.95085 120.222 10.005C119.437 10.0656 119.215 9.72776 119.234 8.99253C119.262 8.00988 119.257 7.02635 119.251 5.95814ZM150.935 24.0828C153.887 24.1271 156.362 21.7724 156.435 18.8549C156.508 15.9158 154.122 13.5386 151.022 13.4645C148.003 13.3913 145.476 15.7524 145.436 18.6833C145.395 21.664 147.812 24.0368 150.935 24.0828ZM156.126 12.3255V7.97649V6.58914C156.126 5.88725 156.126 5.5393 156.301 5.36578C156.472 5.1952 156.811 5.19317 157.483 5.18914C158.809 5.18055 159.471 5.17626 159.802 5.50527C160.132 5.83367 160.132 6.49415 160.132 7.81391C160.132 10.8064 160.132 13.7989 160.132 16.7913C160.132 19.7835 160.132 22.7755 160.132 25.7673C160.132 25.9118 160.132 26.0573 160.13 26.2018C160.117 26.9212 160.11 27.2784 159.928 27.4554C159.749 27.63 159.399 27.6293 158.704 27.628L158.681 27.6276C158.659 27.6274 158.637 27.6277 158.616 27.6271C158.407 27.623 158.181 27.6412 157.956 27.6595C157.435 27.7016 156.914 27.7438 156.594 27.5106C156.329 27.3188 156.291 26.8174 156.252 26.313C156.235 26.0808 156.217 25.848 156.177 25.6445C156.164 25.5782 156.131 25.5159 156.085 25.4295C156.059 25.3793 156.028 25.3209 155.994 25.2489C153.852 27.3353 151.333 28.0552 148.481 27.4509C146.439 27.0183 144.729 25.9949 143.436 24.3186C140.808 20.908 141.043 15.7126 143.884 12.6444C146.418 9.9103 152.068 8.51211 156.126 12.3255ZM114.191 38.0285C115.712 36.4262 117.559 35.7199 119.73 35.859C121.91 35.9981 123.687 36.8534 124.98 38.9435C125.121 38.7798 125.252 38.6229 125.377 38.4723C125.628 38.1706 125.857 37.8943 126.109 37.6401C128.813 34.9223 135.024 35.1987 136.963 38.8965C137.471 39.8666 137.86 41.0155 137.898 42.0967C137.98 44.4723 137.975 46.8507 137.97 49.2295V49.2345C137.968 50.4112 137.965 51.5881 137.973 52.7647C137.977 53.3301 137.77 53.5387 137.211 53.5189C136.431 53.4909 135.649 53.4863 134.871 53.5279C134.176 53.5649 133.977 53.2678 133.983 52.6066C133.999 50.4654 133.997 48.3246 133.994 46.1836C133.993 45.3172 133.992 44.4508 133.993 43.5843C133.993 42.3658 133.774 41.2151 132.887 40.3047C131.662 39.0474 130.13 39.0383 128.609 39.4629C127.255 39.8413 126.443 40.8782 126.151 42.2448C126.008 42.9159 125.984 43.6213 125.979 44.3123C125.96 47.0879 125.949 49.8644 125.985 52.6391C125.994 53.3445 125.744 53.5613 125.082 53.5225C124.39 53.4818 123.691 53.4647 123.002 53.5198C122.248 53.5794 121.995 53.3238 122.005 52.5497C122.046 49.6874 122.038 46.8241 122.007 43.9618C122 43.2185 121.926 42.4516 121.73 41.7381C121.292 40.1502 120.301 39.406 118.573 39.2578C116.913 39.1151 115.479 39.6227 114.691 41.1338C114.268 41.944 114.053 42.943 114.027 43.8661C113.944 46.7844 113.974 49.7063 114.006 52.6265C114.013 53.3138 113.798 53.5586 113.116 53.518C112.367 53.4728 111.613 53.4963 110.861 53.5216C110.333 53.5378 110.072 53.3834 110.074 52.789C110.092 47.3823 110.092 41.9756 110.081 36.568C110.08 36.0333 110.283 35.849 110.797 35.8662C111.577 35.8924 112.36 35.9096 113.139 35.8689C113.767 35.8355 114.06 36.0252 113.984 36.6954C113.954 36.9661 113.962 37.2412 113.97 37.5163V37.5164V37.5165V37.5167V37.5168V37.5169V37.517V37.5171V37.5172V37.5173V37.5174V37.5175C113.973 37.6431 113.977 37.7687 113.977 37.894L114.191 38.0285ZM89.684 45.2042C89.6853 44.323 89.6867 43.4417 89.6867 42.5606H89.6813C89.6813 41.6943 89.6804 40.8281 89.6795 39.9618V39.9617V39.9616V39.9615V39.9614C89.6767 37.416 89.674 34.8703 89.6949 32.3252C89.7003 31.6839 89.5106 31.4364 88.8612 31.4735C88.1404 31.515 87.4133 31.5168 86.6944 31.4698C85.9799 31.4238 85.7342 31.6875 85.7433 32.4092C85.7595 33.6231 85.7564 34.8375 85.7532 36.0519V36.0533C85.75 37.2673 85.7469 38.4812 85.7631 39.6946C85.7722 40.3856 85.54 40.596 84.8617 40.5861C82.5504 40.5536 80.2354 40.5509 77.924 40.5906C77.1924 40.6033 76.9883 40.3522 76.9991 39.644C77.0154 38.4627 77.012 37.2809 77.0086 36.0991V36.0977C77.005 34.8512 77.0013 33.6047 77.0208 32.3586C77.0316 31.6523 76.7842 31.4337 76.1212 31.4708C75.4582 31.5078 74.7871 31.5249 74.1278 31.4626C73.2688 31.3813 73.0547 31.7444 73.0602 32.5555C73.0818 36.4588 73.0791 40.3621 73.0764 44.2654C73.0755 45.5665 73.0746 46.8676 73.0746 48.1687C73.0749 48.6008 73.077 49.0329 73.0791 49.465V49.465V49.4651V49.4652V49.4652V49.4653V49.4654V49.4655V49.4655V49.4656V49.4657C73.0844 50.5371 73.0897 51.6085 73.0665 52.6794C73.052 53.3261 73.2941 53.5537 73.9291 53.5212C74.6778 53.4824 75.4329 53.486 76.1826 53.5257C76.8311 53.56 77.0289 53.3044 77.0217 52.6677C77.0072 51.5231 77.0092 50.3786 77.0112 49.2341C77.0134 47.95 77.0156 46.666 76.9946 45.3822C76.9829 44.6109 77.1807 44.3011 78.0098 44.3209C79.4412 44.3549 80.8725 44.3499 82.3036 44.345H82.3036H82.3037H82.3038H82.3039H82.304H82.3041H82.3042H82.3043H82.3044H82.3045C83.0414 44.3424 83.7782 44.3399 84.5149 44.3426C85.7487 44.348 85.7541 44.3571 85.7559 45.5999C85.7569 46.0893 85.7583 46.5788 85.7598 47.0682V47.0696C85.7655 48.9218 85.7712 50.7739 85.7469 52.6261C85.7369 53.3071 85.9627 53.5646 86.6474 53.5176C87.3384 53.4715 88.0393 53.4616 88.7275 53.5239C89.5115 53.5944 89.7093 53.2855 89.7021 52.5349C89.6762 50.0919 89.6801 47.648 89.684 45.2042ZM17.5274 13.0272C16.1446 10.8829 14.3797 9.4856 11.7892 9.39257C9.53928 9.31128 7.55308 9.94354 5.93721 11.5323C3.06225 14.3594 3.29257 19.3055 6.39334 21.9799C9.8816 24.9877 14.5486 24.1197 17.7776 19.7986C18.9121 20.3604 20.061 20.9304 21.2053 21.4985C19.8306 24.7736 15.4003 28.4082 9.6007 27.542C3.98625 26.7038 0.202633 22.5589 0.00843932 17.1296C-0.192077 11.5287 3.19502 7.09025 8.62612 5.79321C13.8531 4.54405 18.9708 7.2176 20.91 10.9877C20.4316 11.2762 19.9515 11.5656 19.4624 11.8604L19.4613 11.8611L19.4601 11.8618L19.4594 11.8622L19.4592 11.8623C18.8348 12.2387 18.1959 12.6239 17.5274 13.0272ZM90.2762 16.4415H80.254C80.5466 14.8121 82.6168 13.4455 84.7765 13.3742C87.7571 13.2748 89.7577 14.3488 90.2762 16.4415ZM83.2066 23.8841C81.533 23.269 79.8728 21.3623 80.0165 19.8684C80.1145 19.862 80.2141 19.854 80.3148 19.8458L80.3149 19.8458C80.5434 19.8274 80.7774 19.8085 81.0118 19.8078C82.4791 19.803 83.947 19.8035 85.415 19.8039L86.7365 19.8042C87.3379 19.8042 87.9394 19.804 88.5408 19.8037C90.1947 19.803 91.8486 19.8023 93.5025 19.8069C93.9695 19.8088 94.3543 19.8033 94.3678 19.153C94.4121 17.0133 94.0192 15.0153 92.6445 13.2983C90.5155 10.6401 87.6668 9.74591 84.3953 10.0133C81.0217 10.2888 78.4665 11.9417 76.997 14.9928C75.4633 18.1739 75.7731 21.3162 77.8839 24.1542C80.7652 28.029 87.0734 28.8609 90.9961 25.9633C92.0628 25.1739 92.9895 24.2517 93.5621 22.9493C93.3176 22.8073 93.0803 22.6691 92.8479 22.5337L92.8474 22.5334L92.8457 22.5324C92.2925 22.2103 91.7673 21.9044 91.2399 21.6026C91.0738 21.5075 90.9015 21.4221 90.733 21.3386C90.6533 21.2991 90.5744 21.26 90.4975 21.2205C88.0633 24.1126 85.9181 24.8795 83.2066 23.8841ZM126.99 16.4746H137.034C136.72 14.623 134.916 13.4461 132.423 13.3774C129.681 13.3025 127.416 14.5462 126.99 16.4746ZM126.67 19.8779C127.142 22.1116 128.44 23.3897 130.396 24.0003C133.031 24.8222 135.036 23.9894 137.297 21.1885C137.798 21.4753 138.301 21.7644 138.816 22.0595L138.816 22.0599L138.912 22.1147L138.933 22.127L138.943 22.1327C139.415 22.4034 139.896 22.6793 140.391 22.9634C138.887 25.6432 136.691 27.1823 133.759 27.5563C131.004 27.9076 128.401 27.4316 126.148 25.6577C121.606 22.0809 121.857 14.8894 126.638 11.617C130.786 8.7791 136.605 9.58478 139.517 13.4054C140.825 15.1234 141.222 17.0951 141.127 19.2105C141.1 19.8229 140.735 19.8138 140.357 19.8044C140.31 19.8032 140.263 19.8021 140.217 19.8021C138.314 19.8038 136.412 19.8041 134.509 19.8044C132.335 19.8047 130.16 19.8051 127.986 19.8075C127.724 19.8075 127.462 19.8256 127.164 19.8462C127.011 19.8568 126.848 19.8681 126.67 19.8779ZM148.184 39.3089C150.858 39.3134 152.771 40.4722 153.077 42.3934H143.099C143.387 40.6131 145.601 39.3061 148.184 39.3089ZM154.114 47.5495L153.32 47.0956C153.248 47.2018 153.186 47.2947 153.13 47.3792C153.033 47.5238 152.953 47.6435 152.872 47.7621C151.556 49.6914 149.676 50.3273 147.442 50.0907C145.299 49.8649 143.796 48.7485 142.975 46.7433C142.615 45.8618 142.699 45.7218 143.623 45.7181C145.296 45.7117 146.97 45.7122 148.642 45.7126C149.312 45.7128 149.981 45.713 150.65 45.7127L151.617 45.7127C153.232 45.7126 154.848 45.7124 156.463 45.7154C156.861 45.7163 157.203 45.7073 157.224 45.1491C157.318 42.5126 156.647 40.1543 154.668 38.3153C151.581 35.4485 146.881 35.0348 143.164 37.254C137.779 40.4704 137.52 48.4287 142.68 51.9486C144.942 53.4931 147.452 53.7406 150.074 53.4163C152.648 53.0984 154.562 51.7083 156.029 49.6345L156.048 49.6086L156.06 49.591L156.092 49.5474C156.308 49.2521 156.541 48.933 156.018 48.6356C155.394 48.2805 154.77 47.924 154.119 47.552L154.114 47.5495ZM99.8675 49.9129C102.797 49.9499 105.178 47.6792 105.228 44.8006C105.276 41.9528 102.919 39.5294 100.039 39.4707C97.1388 39.412 94.6486 41.8046 94.6251 44.6733C94.6026 47.5492 96.9293 49.875 99.8675 49.9129ZM99.9009 53.5321C94.5276 53.6622 90.6753 49.1741 90.7864 44.5586C90.9038 39.6739 94.9458 35.809 100.048 35.8524C105.041 35.8939 109.138 39.9106 109.107 44.7004C109.074 49.5688 104.972 53.6947 99.9009 53.5321ZM30.4419 13.6055C33.4858 13.4492 35.9055 15.6188 36.0383 18.6229C36.1638 21.4645 33.9013 23.8481 30.9459 23.9845C28.0764 24.1172 25.588 21.8519 25.466 18.9941C25.3432 16.1454 27.5525 13.7536 30.4419 13.6055ZM39.8743 18.7665C39.877 13.7988 35.9218 9.97813 30.7752 9.97813C25.6187 9.97723 21.584 13.8611 21.5903 18.8162C21.5975 23.6954 25.6982 27.6516 30.7418 27.6434C35.8965 27.6362 39.8716 23.7713 39.8743 18.7665ZM44.8712 12.3497C46.1177 11.134 47.2864 10.2868 48.7768 10.0917C51.1116 9.78638 53.3417 9.94444 55.1761 11.6931C56.5897 13.0398 57.1379 14.7604 57.1777 16.622C57.2235 18.8043 57.2221 20.9874 57.2207 23.1702C57.2199 24.4295 57.2191 25.6887 57.2273 26.9477C57.2301 27.439 57.0322 27.6296 56.5644 27.6251C56.4032 27.6235 56.2419 27.6212 56.0806 27.6189L56.0801 27.6189L56.0796 27.6188L56.0791 27.6188H56.079C55.4308 27.6096 54.7817 27.6003 54.1356 27.635C53.4428 27.673 53.2378 27.3875 53.245 26.7228C53.2721 24.0917 53.264 21.4588 53.255 18.8268C53.2532 18.1629 53.2342 17.4954 53.1646 16.8351C52.9732 15.0215 51.9146 13.7669 50.3213 13.4137C48.3324 12.9721 46.3073 13.6793 45.5261 15.3132C45.0934 16.2173 44.8748 17.2949 44.8414 18.3038C44.7502 21.0478 44.7836 23.7981 44.8242 26.5457C44.8369 27.3659 44.5984 27.7226 43.7467 27.635C43.3771 27.597 43.0033 27.6064 42.6297 27.6158H42.6296H42.6296H42.6295C42.4526 27.6203 42.2757 27.6248 42.0992 27.6242C40.9377 27.6206 40.935 27.6197 40.935 26.4861C40.9339 23.7287 40.9338 20.9709 40.9337 18.213V18.2129V18.2129V18.2128C40.9336 16.3717 40.9335 14.5305 40.9332 12.6893C40.9332 12.504 40.9348 12.3186 40.9364 12.1331V12.133V12.1329V12.1327V12.1326V12.1325V12.1324C40.9403 11.6816 40.9442 11.2305 40.925 10.7808C40.8988 10.1757 41.1572 9.9598 41.7515 9.9887C42.4722 10.0248 43.2002 10.042 43.9183 9.98418C44.6454 9.92547 44.8261 10.266 44.799 10.9001C44.7883 11.1554 44.8071 11.4123 44.8314 11.7459C44.8443 11.9221 44.8587 12.1197 44.8712 12.3497ZM63.1352 11.9773C63.0077 12.0896 62.8663 12.2143 62.702 12.3563C62.6911 12.1256 62.6774 11.9191 62.6648 11.7289V11.7289C62.6397 11.3497 62.6189 11.0355 62.6333 10.7233C62.6595 10.1479 62.4157 9.95465 61.8629 9.98536C61.4511 10.0081 61.0381 10.0032 60.625 9.99838H60.625H60.6249C60.4309 9.99609 60.2368 9.99381 60.0429 9.99439C58.8344 9.99891 58.8344 9.99981 58.8353 11.1695C58.8359 11.7566 58.8367 12.3439 58.8375 12.9312L58.8375 12.9391C58.8391 14.1127 58.8407 15.2864 58.8407 16.4597C58.8407 17.23 58.8413 18.0003 58.842 18.7706C58.8442 21.4118 58.8464 24.053 58.8226 26.6941C58.8163 27.4113 59.0529 27.6841 59.7674 27.6362C60.4286 27.591 61.0988 27.5901 61.7608 27.6335C62.4337 27.6777 62.674 27.442 62.6631 26.7483C62.6279 24.3783 62.636 22.0073 62.6586 19.6363L62.6605 19.4152C62.6679 18.5365 62.6753 17.6468 62.8302 16.7894C63.2376 14.5358 65.0314 13.1882 67.3093 13.3146C69.6162 13.442 70.8653 14.6848 71.0451 17.1407C71.1217 18.1823 71.1242 19.23 71.1267 20.2768C71.1273 20.5017 71.1278 20.7266 71.1291 20.9514C71.1408 22.8888 71.1417 24.8254 71.1218 26.7628C71.1146 27.3788 71.3224 27.6606 71.9781 27.6281C72.6849 27.5933 73.3945 27.6069 74.1032 27.6206L74.406 27.6263C74.8531 27.6353 75.1105 27.5116 75.1078 26.9958C75.1015 25.8269 75.1065 24.6577 75.1115 23.4886C75.1217 21.1299 75.1318 18.7715 75.0491 16.4163C74.956 13.759 73.8442 11.5208 71.2239 10.5246C68.6407 9.54187 66.062 9.62858 63.7624 11.4432C63.5638 11.5993 63.3741 11.7665 63.1352 11.9773ZM108.982 20.9224C110.099 21.3686 111.19 21.804 112.354 22.2682C111.759 23.9817 110.618 25.1766 109.227 26.1349C104.945 29.0804 98.6822 27.6831 96.0186 23.2175C92.7544 17.7431 96.4603 10.5552 102.828 10.0196C106.502 9.70978 109.548 10.8406 111.698 13.9622C112.467 15.0822 112.441 15.14 111.206 15.6602C111.159 15.6802 111.112 15.7011 111.065 15.7221L111.065 15.7222C110.98 15.7601 110.895 15.7981 110.808 15.83C110.639 15.8927 110.467 15.9744 110.294 16.0563C109.887 16.2497 109.479 16.4435 109.11 16.3864C108.819 16.3412 108.574 16.0158 108.326 15.6868C108.207 15.5292 108.088 15.3708 107.963 15.242C105.955 13.1773 102.591 13.0382 100.415 14.9241C98.3273 16.7333 98.0482 19.8124 99.7715 22.0235C101.92 24.7801 106.394 24.604 108.468 21.6793C108.577 21.5256 108.682 21.369 108.796 21.1977L108.797 21.1972L108.798 21.195C108.856 21.1084 108.917 21.0181 108.982 20.9224Z" fill="#FF6A07"/>
<path fill-rule="evenodd" clip-rule="evenodd" d="M81.2412 74.1172C81.9287 74.1172 82.5303 73.9531 83.0459 73.625C83.5616 73.2969 83.96 72.8213 84.2412 72.1982C84.5225 71.5752 84.6631 70.8457 84.6631 70.0098V69.4707C84.6631 68.6387 84.5225 67.9092 84.2412 67.2822C83.96 66.6553 83.5586 66.1768 83.0371 65.8467C82.5157 65.5166 81.9131 65.3516 81.2295 65.3516C80.5577 65.3516 79.961 65.5186 79.4395 65.8525C78.918 66.1865 78.5147 66.668 78.2295 67.2969C77.9444 67.9258 77.8018 68.6504 77.8018 69.4707V70.0859C77.8096 70.8906 77.9571 71.5986 78.2442 72.21C78.5313 72.8213 78.9346 73.292 79.4541 73.6221C79.9737 73.9521 80.5694 74.1172 81.2412 74.1172ZM4.14258 66.3945V74H3.02344V66.3945H0.287109V65.4688H6.88477V66.3945H4.14258ZM12.6454 70.0566V74H11.5204V65.4688H12.6454V69.1367H16.9462V65.4688H18.077V74H16.9462V70.0566H12.6454ZM28.865 74V73.0801H24.5701V70.0566H28.2673V69.1367H24.5701V66.3945H28.8064V65.4688H23.4451V74H28.865ZM41.1128 71.7734L40.3101 74H39.1499L42.4077 65.4688H43.3921L46.6558 74H45.5015L44.687 71.7734H41.1128ZM44.353 70.8477H41.4527L42.8999 66.8574L44.353 70.8477ZM52.2992 70.5488V74H51.1684V65.4688H53.9926C54.9535 65.4688 55.6928 65.6875 56.2104 66.125C56.7279 66.5625 56.9867 67.1992 56.9867 68.0352C56.9867 68.5664 56.8432 69.0293 56.5561 69.4238C56.2689 69.8184 55.8695 70.1133 55.3578 70.3086L57.3617 73.9297V74H56.1547L54.3031 70.5488H52.2992ZM54.0277 69.6289H52.2992V66.3945H54.0219C54.6156 66.3984 55.0697 66.541 55.3842 66.8223C55.6986 67.1035 55.8559 67.5078 55.8559 68.0352C55.8559 68.5195 55.6908 68.9062 55.3607 69.1953C55.0307 69.4844 54.5863 69.6289 54.0277 69.6289ZM64.6165 66.3945V74H63.4973V66.3945H60.761V65.4688H67.3587V66.3945H64.6165ZM79.5391 72.3213C79.9512 72.8818 80.5186 73.1621 81.2412 73.1621C81.9678 73.1621 82.5303 72.8975 82.9287 72.3682C83.3272 71.8389 83.5323 71.0801 83.544 70.0918V69.459C83.544 68.4473 83.3409 67.6709 82.9346 67.1299C82.5284 66.5889 81.96 66.3184 81.2295 66.3184C80.5186 66.3184 79.959 66.5889 79.5508 67.1299C79.1426 67.6709 78.9327 68.4219 78.9209 69.3828V70.0098C78.9209 70.9902 79.127 71.7607 79.5391 72.3213ZM90.8456 74V70.2324H94.4257V69.3125H90.8456V66.3945H95.0058V65.4688H89.7206V74H90.8456ZM111.238 73.0801V74H106.064V65.4688H107.195V73.0801H111.238ZM117.098 74V65.4688H115.973V74H117.098ZM129.017 65.4688L125.853 74H124.857L121.699 65.4688H122.923L125.349 72.5059L127.787 65.4688H129.017ZM134.737 74V65.4688H133.612V74H134.737ZM141.294 67.4258V74H140.163V65.4688H141.294L145.601 72.0723V65.4688H146.72V74H145.589L141.294 67.4258ZM155.369 74.1172C156.057 74.1172 156.659 74.0146 157.177 73.8096C157.694 73.6045 158.098 73.2949 158.387 72.8809V69.752H155.293V70.666H157.268V72.582C157.061 72.8047 156.799 72.9629 156.482 73.0566C156.166 73.1504 155.797 73.1973 155.375 73.1973C154.629 73.1973 154.037 72.915 153.6 72.3506C153.162 71.7861 152.943 71.0254 152.943 70.0684V69.3711C152.947 68.3672 153.144 67.6006 153.532 67.0713C153.921 66.542 154.492 66.2773 155.246 66.2773C156.379 66.2773 157.051 66.8418 157.262 67.9707H158.387C158.266 67.1348 157.934 66.4893 157.391 66.0342C156.848 65.5791 156.131 65.3516 155.24 65.3516C154.154 65.3516 153.312 65.7051 152.712 66.4121C152.112 67.1191 151.813 68.1152 151.813 69.4004V70.1445C151.82 70.9375 151.972 71.6348 152.267 72.2363C152.562 72.8379 152.979 73.3018 153.518 73.6279C154.057 73.9541 154.674 74.1172 155.369 74.1172ZM174.842 73.4932C174.303 73.9092 173.582 74.1172 172.68 74.1172C172.094 74.1172 171.547 74.0049 171.039 73.7803C170.531 73.5557 170.139 73.248 169.864 72.8574C169.589 72.4668 169.451 72.0234 169.451 71.5273H170.582C170.582 72.043 170.772 72.4502 171.153 72.749C171.534 73.0479 172.043 73.1973 172.68 73.1973C173.273 73.1973 173.728 73.0762 174.045 72.834C174.361 72.5918 174.519 72.2617 174.519 71.8438C174.519 71.4258 174.373 71.1025 174.08 70.874C173.787 70.6455 173.256 70.4199 172.486 70.1973C171.521 69.9199 170.819 69.5791 170.38 69.1748C169.94 68.7705 169.721 68.2715 169.721 67.6777C169.721 67.0059 169.989 66.4502 170.526 66.0107C171.063 65.5713 171.762 65.3516 172.621 65.3516C173.207 65.3516 173.729 65.4648 174.188 65.6914C174.647 65.918 175.003 66.2305 175.255 66.6289C175.507 67.0273 175.633 67.4629 175.633 67.9355H174.502C174.502 67.4199 174.338 67.0146 174.01 66.7197C173.681 66.4248 173.219 66.2773 172.621 66.2773C172.066 66.2773 171.634 66.3994 171.323 66.6436C171.013 66.8877 170.857 67.2266 170.857 67.6602C170.857 68.0078 171.005 68.3018 171.3 68.542C171.595 68.7822 172.097 69.002 172.806 69.2012C173.514 69.4004 174.069 69.6201 174.47 69.8604C174.87 70.1006 175.167 70.3809 175.36 70.7012C175.554 71.0215 175.65 71.3984 175.65 71.832C175.65 72.5234 175.381 73.0771 174.842 73.4932ZM181.587 74V70.6777L181.475 67.1094L184.27 74H185.132L187.932 67.0918L187.827 70.6777V74H188.952V65.4688H187.493L184.704 72.4297L181.915 65.4688H180.462V74H181.587ZM195.55 71.7734L194.748 74H193.587L196.845 65.4688H197.83L201.093 74H199.939L199.125 71.7734H195.55ZM198.791 70.8477H195.89L197.337 66.8574L198.791 70.8477ZM206.737 70.5488V74H205.606V65.4688H208.43C209.391 65.4688 210.13 65.6875 210.648 66.125C211.166 66.5625 211.424 67.1992 211.424 68.0352C211.424 68.5664 211.281 69.0293 210.994 69.4238C210.707 69.8184 210.307 70.1133 209.795 70.3086L211.799 73.9297V74H210.592L208.741 70.5488H206.737ZM208.465 69.6289H206.737V66.3945H208.459C209.053 66.3984 209.507 66.541 209.822 66.8223C210.136 67.1035 210.293 67.5078 210.293 68.0352C210.293 68.5195 210.128 68.9062 209.798 69.1953C209.468 69.4844 209.024 69.6289 208.465 69.6289ZM221.796 66.3945H219.054V74H217.935V66.3945H215.199V65.4688H221.796V66.3945Z" fill="white"/>
<path fill-rule="evenodd" clip-rule="evenodd" d="M189.199 52.3772V48.7345H188.389L185.362 48.7319C182.842 48.7296 180.323 48.7273 177.803 48.7273C175.451 48.7282 174.632 47.9126 174.632 45.5353C174.631 42.8934 174.632 40.2513 174.633 37.6093V37.6092V37.6092C174.635 31.4002 174.637 25.191 174.618 18.9823C174.614 17.6166 175.065 16.6429 176.227 15.8598C179.32 13.7773 182.39 11.6619 185.461 9.54653L185.461 9.54632L185.461 9.54623L185.462 9.54583L185.463 9.54482C186.865 8.57903 188.267 7.61323 189.671 6.65053C193.731 3.86679 199.174 3.82073 203.226 6.60357C205.361 8.07064 207.484 9.55639 209.606 11.0421L209.607 11.0423L209.607 11.0424L209.607 11.0426L209.607 11.0427C211.912 12.6558 214.216 14.2689 216.537 15.858C217.664 16.6285 218.097 17.5588 218.091 18.9073C218.064 25.3265 218.067 31.7462 218.07 38.166C218.071 40.7133 218.072 43.2607 218.071 45.8081C218.071 47.8458 217.212 48.7192 215.185 48.7237C213.607 48.7272 212.028 48.7276 210.449 48.7279C207.574 48.7285 204.698 48.7292 201.823 48.749C201.171 48.7535 200.788 48.5656 200.427 47.9993C199.141 45.9815 196.633 45.2526 194.484 46.1938C192.568 47.0329 191.512 48.8772 191.667 51.1109C191.797 52.968 193.271 54.6841 195.173 55.1926C197.149 55.7201 199.266 54.9569 200.386 53.1892C200.773 52.576 201.195 52.4251 201.86 52.4278C206.314 52.4495 210.768 52.4531 215.222 52.4215C216.021 52.4152 216.855 52.3348 217.609 52.0909C220.171 51.2572 221.771 48.9721 221.773 46.2209C221.784 36.8779 221.792 27.5349 221.77 18.192C221.765 16.1326 220.913 14.4427 219.198 13.2441C218.041 12.435 216.885 11.6244 215.729 10.8138L215.724 10.8105C212.409 8.48594 209.094 6.1613 205.756 3.8704C199.951 -0.115531 193.261 -0.163402 187.402 3.76382C184.447 5.74471 181.518 7.76351 178.59 9.78215L178.59 9.78226L178.59 9.78238L178.589 9.78249C176.998 10.8794 175.407 11.9763 173.811 13.067C171.895 14.3767 170.967 16.1615 170.972 18.4945C170.985 23.8884 170.984 29.2822 170.984 34.6761C170.984 38.4518 170.984 42.2275 170.988 46.0032C170.989 46.6056 171.017 47.2261 171.164 47.806C171.885 50.6476 174.228 52.4098 177.308 52.4287C180.269 52.4465 183.229 52.4436 186.19 52.4406C186.989 52.4398 187.789 52.439 188.589 52.4387C188.742 52.4387 188.895 52.4175 189.034 52.3984H189.034L189.034 52.3984C189.092 52.3904 189.147 52.3828 189.199 52.3772ZM213.936 29.8357C208.908 25.577 203.073 23.5014 195.952 23.374C195.714 23.3972 195.432 23.4187 195.119 23.4427C194.308 23.5048 193.289 23.5829 192.284 23.7453C187.172 24.5717 182.645 26.6753 178.761 30.1202C178.511 30.3415 178.27 30.6197 178.142 30.9214C177.808 31.7081 178.098 32.3729 178.966 33.0783C179.614 33.604 180.276 33.6383 180.951 33.1686C181.146 33.0318 181.328 32.8755 181.509 32.7189L181.509 32.7189C181.635 32.6108 181.76 32.5027 181.89 32.4009C188.475 27.238 195.788 25.922 203.764 28.3517C206.641 29.2278 209.195 30.7516 211.484 32.7098C212.399 33.492 212.982 33.5687 213.742 33.0638C215.165 32.1191 215.241 30.9413 213.936 29.8357ZM209.198 37.472L209.198 37.4721L209.198 37.4721C208.835 37.9134 208.509 38.3094 208.107 38.6011C207.529 39.0202 206.841 38.8413 206.264 38.3771C204.081 36.6185 201.629 35.466 198.836 35.0704C194.331 34.4318 190.301 35.531 186.745 38.3707C185.573 39.3074 184.109 38.9353 183.588 37.528C183.326 36.8226 183.478 36.1904 184.102 35.6674C187.601 32.7364 191.617 31.2127 196.185 31.1332C200.724 31.0537 204.771 32.432 208.334 35.2176C208.661 35.4728 208.925 35.8083 209.231 36.1977C209.386 36.3954 209.552 36.6069 209.743 36.8289C209.546 37.0492 209.368 37.2655 209.198 37.472ZM189.141 41.9271C189.055 42.0712 188.968 42.2152 188.874 42.3488C189.009 43.3514 189.607 43.9258 190.272 44.1833C190.769 44.3757 191.569 44.2772 192.028 43.9846C193.519 43.0335 195.094 42.506 196.853 42.58C198.36 42.6433 199.72 43.1536 200.977 43.9972C201.883 44.6051 202.859 44.2853 203.564 43.2403C204.036 42.5403 203.846 41.5413 203.138 41.0139C199.303 38.1542 193.582 38.1714 189.784 41.0969C189.516 41.3039 189.328 41.6156 189.141 41.9271Z" fill="white"/>
</svg>
