<?xml version="1.0" encoding="UTF-8"?>
<svg width="222px" height="91px" viewBox="0 0 222 91" version="1.1" xmlns="http://www.w3.org/2000/svg" xmlns:xlink="http://www.w3.org/1999/xlink">
    <!-- Generator: Sketch 63.1 (92452) - https://sketch.com -->
    <title>Group</title>
    <desc>Created with Sketch.</desc>
    <g id="Overview" stroke="none" stroke-width="1" fill="none" fill-rule="evenodd">
        <g id="Mobile---Splash-Screen" transform="translate(-49.000000, -257.000000)">
            <g id="Group" transform="translate(49.000000, 257.000000)">
                <g id="Logo">
                    <g id="Group-21">
                        <path d="M154.668065,38.3152903 C156.647033,40.1542581 157.31813,42.5125806 157.224194,45.1490968 C157.20342,45.7072903 156.861097,45.7163226 156.462775,45.7154194 L153.556533,45.7127097 L153.556533,45.7127097 L150.649614,45.7127097 C148.308452,45.7136129 145.965484,45.7090968 143.62342,45.718129 C142.698517,45.7217419 142.614517,45.8617419 142.974904,46.7432903 C143.795936,48.7484516 145.298904,49.8648387 147.442259,50.0906452 C149.675936,50.3272903 151.556452,49.6914194 152.872452,47.762129 C153.00071,47.5742581 153.126259,47.3836774 153.319549,47.0955484 C154.268839,47.6374839 155.143162,48.137871 156.018388,48.6355484 C156.592839,48.9625161 156.25413,49.3156774 156.029226,49.6345161 C154.562388,51.7083226 152.648452,53.0983871 150.074259,53.4163226 C147.452194,53.7405806 144.94213,53.4930968 142.679549,51.9485806 C137.520323,48.4287097 137.778646,40.4703871 143.163678,37.254 C146.881355,35.0347742 151.580839,35.4484516 154.668065,38.3152903 Z M100.048104,35.8523742 C105.041136,35.8939226 109.138168,39.9105677 109.106737,44.7003742 C109.074039,49.5687613 104.971588,53.6946968 99.900878,53.5321161 C94.5275877,53.6621806 90.6753296,49.1740516 90.7864264,44.5585677 C90.9038458,39.6739226 94.9457813,35.8090194 100.048104,35.8523742 Z M74.1277813,31.4626065 C74.7871361,31.524929 75.4582329,31.5077677 76.1212006,31.4707355 C76.7841683,31.4337032 77.0316522,31.6522839 77.0208135,32.3586065 C76.982878,34.7864774 77.0325554,37.2161548 76.9991361,39.6440258 C76.9882974,40.3521548 77.1924264,40.6032516 77.9240393,40.5906065 C80.2353942,40.5508645 82.5503619,40.5535742 84.8617167,40.5860903 C85.5400393,40.5960258 85.7721683,40.3855742 85.7631361,39.6946065 C85.73062,37.2667355 85.7757813,34.8370581 85.7432651,32.4091871 C85.7342329,31.6875097 85.9799103,31.4237677 86.6943619,31.4698323 C87.4133296,31.5168 88.1404264,31.5149935 88.8612006,31.4734452 C89.51062,31.4364129 89.7002974,31.6838968 89.694878,32.3251871 C89.666878,35.736671 89.6813296,39.1490581 89.6813296,42.5605419 L89.686749,42.5605419 C89.686749,45.8853161 89.666878,49.2109935 89.7021038,52.5348645 C89.7093296,53.2854452 89.5115232,53.5943484 88.7275232,53.5238968 C88.0392651,53.4615742 87.3383619,53.4715097 86.6473942,53.5175742 C85.962749,53.5645419 85.7369425,53.3071226 85.746878,52.6260903 C85.7775877,50.2840258 85.7604264,47.9419613 85.7559103,45.5998968 C85.7541038,44.3570581 85.7486845,44.3480258 84.514878,44.3426065 C82.3471361,44.3344774 80.1784909,44.3724129 78.0098458,44.320929 C77.1806845,44.3010581 76.982878,44.6108645 76.99462,45.3822194 C77.0343619,47.8100903 76.9910071,50.2388645 77.0217167,52.6676387 C77.0289425,53.3044129 76.8311361,53.5600258 76.18262,53.5257032 C75.4329425,53.4859613 74.6778458,53.4823484 73.9290716,53.5211871 C73.2941038,53.5537032 73.0520393,53.3260903 73.0664909,52.6793806 C73.0990071,51.1764129 73.0755232,49.6725419 73.07462,48.168671 C73.07462,42.9642839 73.0890716,37.7598968 73.0600688,32.5555097 C73.054749,31.7444129 73.2688135,31.3813161 74.1277813,31.4626065 Z M136.963304,38.8965161 C137.470917,39.8665806 137.860207,41.0154839 137.898143,42.0966452 C138.020981,45.6490323 137.948723,49.2077419 137.973157,52.7646452 C137.976723,53.3300645 137.769884,53.5387097 137.210788,53.5188387 C136.431304,53.4908387 135.64911,53.4863226 134.87053,53.527871 C134.175949,53.5649032 133.977239,53.2677419 133.982659,52.6065806 C134.006143,49.5988387 133.991691,46.592 133.992594,43.5842581 C133.992594,42.3658065 133.774014,41.2150968 132.887046,40.3046452 C131.662272,39.0473548 130.130401,39.0383226 128.609368,39.4628387 C127.25453,39.8412903 126.44253,40.8781935 126.150788,42.2447742 C126.008078,42.915871 125.983691,43.6212903 125.979175,44.3122581 C125.960207,47.087871 125.949368,49.8643871 125.985497,52.6390968 C125.993626,53.3445161 125.744336,53.5612903 125.082272,53.5224516 C124.390401,53.4818065 123.691304,53.4646452 123.002143,53.5197419 C122.247949,53.5793548 121.995046,53.3237419 122.004981,52.5496774 C122.045626,49.6873548 122.038401,46.824129 122.006788,43.9618065 C121.999562,43.2184516 121.926401,42.4516129 121.730401,41.7380645 C121.292336,40.1501935 120.301497,39.4059355 118.572723,39.2578065 C116.913497,39.1150968 115.479175,39.6227097 114.690659,41.1338065 C114.267949,41.944 114.052981,42.9429677 114.026788,43.8660645 C113.943691,46.7843871 113.974401,49.7063226 114.006014,52.6264516 C114.013239,53.3138065 113.798272,53.5585806 113.116336,53.5179355 C112.366659,53.4727742 111.613368,53.4962581 110.860981,53.5215484 C110.333497,53.5378065 110.072465,53.3833548 110.074262,52.7890323 C110.092336,47.3823226 110.092336,41.9756129 110.080594,36.568 C110.079691,36.0332903 110.282917,35.8490323 110.796852,35.8661935 C111.577239,35.8923871 112.360336,35.9095484 113.138917,35.8689032 C113.766659,35.8354839 114.060207,36.0251613 113.984336,36.6953548 C113.940078,37.0900645 113.97711,37.4938065 113.97711,37.8939355 L114.191175,38.0285161 C115.712207,36.4261935 117.559304,35.719871 119.729755,35.8589677 C121.910143,35.9980645 123.686788,36.8534194 124.980207,38.9434839 C125.40382,38.452129 125.731691,38.0212903 126.109239,37.640129 C128.812594,34.9223226 135.024078,35.1987097 136.963304,38.8965161 Z M100.039072,39.4706968 C97.1388135,39.4119871 94.64862,41.8046323 94.6251361,44.6732774 C94.6025554,47.5491484 96.9292651,49.8749548 99.8674587,49.9128903 C102.79662,49.9499226 105.178426,47.6792129 105.228104,44.8006323 C105.275975,41.9527613 102.918555,39.5294065 100.039072,39.4706968 Z M148.183807,39.3088345 C145.600581,39.306129 143.386775,40.6130968 143.098646,42.3933548 L153.077484,42.3933548 C152.771291,40.4721935 150.858259,39.3133548 148.183807,39.3088345 Z M92.6444522,13.2982839 C94.0191619,15.0153161 94.4120651,17.0132516 94.3678071,19.1529935 C94.3542587,19.8033161 93.9694845,19.8087355 93.5025167,19.806929 C91.2471619,19.8006065 88.9918071,19.8042194 86.7364522,19.8042194 C84.8279361,19.8042194 82.91942,19.8015097 81.0118071,19.8078323 C80.6740006,19.8087355 80.3370974,19.8475742 80.0164522,19.8683484 C79.8728393,21.3622839 81.5329683,23.2689935 83.2066458,23.8840903 C85.9181296,24.8794452 88.0632909,24.1126065 90.4974845,21.2204774 C90.7368393,21.3433161 90.9951619,21.4625419 91.2399361,21.6025419 C91.9896135,22.0315742 92.7347748,22.4687355 93.5621296,22.9492516 C92.9894845,24.2517032 92.0627748,25.1738968 90.9960651,25.9633161 C87.0733554,28.8608645 80.7652264,28.0289935 77.8839361,24.1541548 C75.7730974,21.3162194 75.4632909,18.1738968 76.9969683,14.9927355 C78.4665167,11.9416387 81.0217425,10.2887355 84.3952909,10.0132516 C87.6667748,9.74589677 90.515549,10.6400903 92.6444522,13.2982839 Z M160.13216,7.43709287 L160.132491,7.81389677 C160.132491,13.798671 160.131588,19.7834452 160.131588,25.7673161 C160.131588,25.9118323 160.131588,26.0572516 160.129781,26.2017677 C160.103588,27.630671 160.103588,27.630671 158.703588,27.6279613 C158.673781,27.6270581 158.644878,27.6279613 158.615975,27.6270581 C157.923201,27.6135097 157.053394,27.8447355 156.593652,27.5105419 C156.207072,27.2305419 156.303717,26.2902839 156.177265,25.6444774 C156.156491,25.5397032 156.086039,25.4448645 155.99391,25.2488645 C153.852362,27.3353161 151.333265,28.0551871 148.480878,27.450929 C146.438684,27.0182839 144.728878,25.994929 143.436362,24.3185419 C140.807975,20.9079613 141.042814,15.7126065 143.884362,12.6443484 C146.41791,9.91028387 152.067588,8.51209032 156.125781,12.3255097 L156.125781,6.58912258 C156.126684,5.19725161 156.126684,5.19725161 157.48333,5.18912258 C160.000033,5.17281935 160.125868,5.17200419 160.13216,7.43709287 Z M111.69773,13.9621548 C112.467278,15.0821548 112.441084,15.1399613 111.206375,15.6602194 C111.073601,15.7162194 110.943536,15.7803484 110.808052,15.8300258 C110.239923,16.0404774 109.634762,16.4677032 109.109988,16.3864129 C108.679149,16.3195742 108.349472,15.6394452 107.962891,15.2420258 C105.95502,13.1772516 102.591407,13.0381548 100.414633,14.9240903 C98.327278,16.7332516 98.0481813,19.8123484 99.7715361,22.0234452 C101.92031,24.7800903 106.393988,24.6039613 108.467794,21.6793161 C108.632181,21.4471871 108.787536,21.2087355 108.98173,20.9224129 C110.09902,21.3686065 111.190117,21.8039613 112.354375,22.2682194 C111.759149,23.9816387 110.618375,25.1766065 109.227407,26.134929 C104.945214,29.0803484 98.6822458,27.6830581 96.0186329,23.2175097 C92.7543748,17.7430581 96.4603103,10.5551871 102.828052,10.0195742 C106.502375,9.70976774 109.548052,10.8406065 111.69773,13.9621548 Z M20.9099877,10.9876516 C19.8197942,11.6452 18.7205683,12.3072645 17.5274071,13.0271355 C16.1445683,10.8828774 14.3796651,9.4855871 11.7892135,9.39255484 C9.53927803,9.31126452 7.55308448,9.94352258 5.93721351,11.5322968 C3.06224577,14.3593935 3.29256835,19.3054581 6.39334254,21.9799097 C9.88160061,24.9876516 14.5485683,24.1196516 17.7776006,19.7986194 C18.9120522,20.3604258 20.0609554,20.9303613 21.2053425,21.4984903 C19.8306329,24.7735871 15.4003103,28.4081677 9.60069738,27.5419742 C3.98624577,26.7037806 0.202632865,22.5588774 0.00843931696,17.1295871 C-0.192076812,11.5286839 3.19501996,7.09023226 8.62611674,5.7932 C13.8530845,4.54403871 18.9707619,7.2175871 20.9099877,10.9876516 Z M139.516633,13.4054065 C140.825407,15.1233419 141.221923,17.0950839 141.127084,19.2104387 C141.096375,19.8986968 140.639343,19.8020516 140.216633,19.8020516 L127.986052,19.807471 L127.986052,19.807471 C127.588633,19.807471 127.19302,19.8490194 126.670052,19.8779226 C127.142439,22.1116 128.440375,23.3896645 130.395859,24.0002452 C133.030568,24.8221806 135.03573,23.9894065 137.297407,21.1885032 C138.296375,21.7611484 139.308891,22.3428258 140.390955,22.9633419 C138.887084,25.6432129 136.691343,27.1823097 133.759472,27.5562452 C131.00373,27.9076 128.400633,27.4316 126.147988,25.6576645 C121.605665,22.0808903 121.856762,14.8894065 126.638439,11.6170194 C130.786052,8.77908387 136.604633,9.58476129 139.516633,13.4054065 Z M55.1761167,11.693071 C56.5896651,13.0397806 57.1379232,14.7604258 57.1776651,16.6219742 C57.2499232,20.0632645 57.2047619,23.5063613 57.22737,26.9476516 C57.2300522,27.4390065 57.0322458,27.6295871 56.5643748,27.625071 C55.7550845,27.6169419 54.9430845,27.5916516 54.1356006,27.6350065 C53.4428264,27.6729419 53.2377942,27.3875226 53.24502,26.7227484 C53.2721167,24.0916516 53.2639877,21.4587484 53.2549554,18.8267484 C53.253149,18.1628774 53.2341813,17.4953935 53.1646329,16.8351355 C52.973149,15.0214581 51.9145683,13.7668774 50.321278,13.4137161 C48.3323748,12.9720387 46.3073425,13.6792645 45.5260522,15.3132 C45.0934071,16.217329 44.8748264,17.2948774 44.8414071,18.3037806 C44.7501813,21.0477806 44.7836006,23.7981032 44.8242458,26.5457161 C44.8368909,27.3658452 44.5984393,27.7226194 43.7466974,27.6350065 C43.2020522,27.5790065 42.6483748,27.6259742 42.0992135,27.6241677 C40.9376651,27.6205548 40.9349554,27.6196516 40.9349554,26.4861032 C40.933149,21.8877806 40.9340522,17.2885548 40.933149,12.689329 C40.933149,12.0534581 40.9521167,11.4157806 40.92502,10.7808129 C40.8988264,10.1756516 41.157149,9.95978065 41.7514716,9.98868387 C42.4722458,10.0248129 43.2002458,10.0419742 43.9183103,9.98416774 C44.6454071,9.92545806 44.8260522,10.2659742 44.7989554,10.9000387 C44.7826974,11.2902323 44.8350845,11.6840387 44.8712135,12.3497161 C46.1176651,11.1339742 47.2864393,10.2867484 48.7767619,10.0916516 C51.1116006,9.78636129 53.3416651,9.94442581 55.1761167,11.693071 Z M30.7752006,9.97811597 C35.9217813,9.97811597 39.8770071,13.7987613 39.8742988,18.7665032 C39.8715877,23.7712774 35.8964909,27.6361806 30.7417813,27.643419 C25.6981683,27.6515355 21.5975232,23.6954065 21.59029,18.8161806 C21.5839748,13.8610839 25.6186845,9.9772129 30.7752006,9.97811597 Z M71.2239103,10.5245677 C73.8441683,11.5208258 74.9560393,13.7590194 75.0490716,16.4163097 C75.1728135,19.9388903 75.0888135,23.4686968 75.1077813,26.9957935 C75.1104909,27.5115355 74.8530716,27.6352774 74.4059748,27.6262452 C73.5966845,27.6117935 72.7855877,27.5883097 71.9781038,27.6280516 C71.3223619,27.6605677 71.11462,27.3787613 71.1218458,26.7627613 C71.1417167,24.8253419 71.1408135,22.8888258 71.1290716,20.9514065 L71.1231753,19.4254751 C71.1173658,18.6624516 71.1008909,17.8999484 71.0450716,17.1406968 C70.8653296,14.6848258 69.6161683,13.4419871 67.3093296,13.3146323 C65.0313942,13.1881806 63.2375877,14.5357935 62.8302329,16.7893419 C62.6622329,17.7187613 62.6676522,18.6861161 62.65862,19.6363097 C62.6360393,22.0072774 62.6279103,24.3782452 62.6631361,26.7483097 C62.6739748,27.4419871 62.4337167,27.677729 61.7608135,27.633471 C61.098749,27.5901161 60.4285554,27.5910194 59.7673942,27.6361806 C59.0529425,27.6840516 58.8162974,27.4112774 58.8224971,26.6941161 C58.8533296,23.2826323 58.8406845,19.8711484 58.8406845,16.4596645 C58.8406845,14.6965677 58.8370716,12.9325677 58.8352651,11.169471 L58.835757,10.9007226 C58.8427544,9.99961792 58.9350716,9.99851398 60.042878,9.99437419 C60.6498458,9.99256774 61.2577167,10.0187613 61.862878,9.98534194 C62.4156522,9.95463226 62.6595232,10.1479226 62.6333296,10.7232774 C62.6116522,11.1920516 62.6694587,11.6653419 62.7019748,12.3563097 C63.1743619,11.9480516 63.4579748,11.6825032 63.7623619,11.4431484 C66.0619748,9.62856774 68.6406845,9.54185806 71.2239103,10.5245677 Z M119.246168,4.51612903 C119.246168,6.17445161 119.274168,7.5843871 119.234426,8.99251613 C119.214555,9.72774194 119.436749,10.0655484 120.221652,10.0050323 C120.911717,9.95083871 121.613523,9.95354839 122.300878,10.0230968 C122.509523,10.0447742 122.836491,10.36 122.853652,10.5623226 C122.918684,11.3092903 122.924104,12.0689032 122.84733,12.8131613 C122.824749,13.0353548 122.47791,13.3731613 122.251201,13.3975484 C121.535846,13.4743226 120.807846,13.4445161 120.085265,13.4246452 C119.518039,13.4083871 119.23262,13.5989677 119.239846,14.2203871 C119.266039,16.5046452 119.215459,18.7907097 119.282297,21.0740645 C119.345523,23.2652903 119.90462,23.7873548 122.115717,23.9002581 C122.652233,23.9273548 122.915072,24.0836129 122.892491,24.6589677 C122.862684,25.4393548 122.927717,26.2251613 122.851846,26.9992258 C122.831072,27.2214194 122.45262,27.5980645 122.25933,27.5845161 C121.082426,27.5059355 119.873007,27.4734194 118.745781,27.1645161 C116.554555,26.5647742 115.625136,24.8341935 115.501394,22.727871 C115.34333,20.0181935 115.363201,17.2976774 115.314426,14.5825806 C115.294555,13.448129 115.303588,13.448129 114.154684,13.4345806 C112.282297,13.4129032 112.279588,13.4129032 112.286814,11.5269677 C112.293136,9.73677419 112.201007,10.0104516 113.824104,9.99419355 C114.05533,9.99148387 114.288362,9.96980645 114.517781,9.98967742 C115.129265,10.0402581 115.400233,9.7476129 115.299975,9.16774194 C115.02991,7.60335484 115.680233,6.61522581 117.091975,5.96309677 C117.786555,5.64245161 118.381781,5.10774194 119.246168,4.51612903 Z M145.436104,18.6833161 C145.395459,21.6639613 147.812491,24.0367355 150.934943,24.0828 C153.886684,24.1270581 156.362426,21.7723484 156.434684,18.854929 C156.507846,15.9158323 154.121523,13.5385419 151.021652,13.4644774 C148.003072,13.3913161 145.475846,15.7523484 145.436104,18.6833161 Z M30.4419103,13.605471 C27.5524909,13.7536 25.3432006,16.1453419 25.4660393,18.9941161 C25.5879748,21.8519226 28.0763619,24.1172129 30.9459103,23.9844387 C33.9012651,23.8480516 36.1638458,21.4644387 36.0382974,18.6228903 C35.9055232,15.6187613 33.4857813,13.4492129 30.4419103,13.605471 Z M126.989794,16.4745677 L137.033665,16.4745677 C136.720246,14.6229548 134.915601,13.4460516 132.422697,13.3774065 C129.681407,13.3024387 127.416117,14.5461806 126.989794,16.4745677 Z M84.7764522,13.3741548 C82.6168393,13.4455097 80.5466458,14.8120903 80.2540006,16.4415097 L90.2761942,16.4415097 C89.7577425,14.3487355 87.7570974,13.2748 84.7764522,13.3741548 Z" id="Combined-Shape" fill="#FF6A07"></path>
                        <path d="M205.756504,3.8704129 C210.259084,6.96125161 214.721923,10.1135097 219.19831,13.2440903 C220.912633,14.442671 221.765278,16.1326065 221.769794,18.1919613 C221.792375,27.534929 221.784189,36.8778968 221.773407,46.2208645 C221.770697,48.9720903 220.171084,51.2572516 217.608633,52.090929 C216.855343,52.3348 216.020762,52.4151871 215.22231,52.4215097 C210.768504,52.4531226 206.313794,52.4495097 201.859988,52.4278323 C201.195214,52.4251226 200.773407,52.5759613 200.385923,53.1892516 C199.265923,54.9568645 197.148762,55.7200903 195.173407,55.1926065 C193.271214,54.6840903 191.797149,52.9679613 191.667084,51.110929 C191.51173,48.8772516 192.567601,47.0328645 194.484246,46.1937677 C196.63302,45.2526065 199.141278,45.9815097 200.427472,47.9993161 C200.787859,48.5656387 201.170826,48.7535097 201.822955,48.7489935 C206.276762,48.7182839 210.731472,48.7336387 215.185278,48.7237032 C217.212117,48.7191871 218.071084,47.8457677 218.071084,45.8080903 C218.073794,36.8408645 218.053923,27.8736387 218.090955,18.9073161 C218.097278,17.5588 217.66373,16.6284774 216.537407,15.8580258 C212.078181,12.8051226 207.680375,9.66370323 203.225665,6.60357419 C199.173794,3.82073548 193.730955,3.8668 189.670955,6.65054194 C185.190955,9.7224129 180.732633,12.8258968 176.227343,15.8598323 C175.064891,16.642929 174.614181,17.6166065 174.617794,18.9822839 C174.644891,27.8329935 174.629536,36.6846065 174.632246,45.5353161 C174.632246,47.9126065 175.450568,48.7282194 177.803472,48.7273161 C181.331472,48.7273161 184.860375,48.7318323 188.389278,48.7345419 L189.198568,48.7345419 L189.198568,52.3772516 C189.023343,52.3962194 188.805665,52.438671 188.588891,52.438671 C184.828762,52.4404774 181.068633,52.4513161 177.308504,52.4287355 C174.227601,52.4097677 171.884633,50.6475742 171.163859,47.8060258 C171.016633,47.2261548 170.988633,46.6056387 170.98773,46.0031871 C170.977794,36.8336387 170.993149,27.6640903 170.972351,18.4945419 C170.966955,16.1615097 171.895472,14.3767355 173.811214,13.0670581 C178.342697,9.96899355 182.841665,6.82125161 187.402052,3.76383226 C193.261278,-0.163393548 199.951472,-0.115522581 205.756504,3.8704129 Z M203.137691,41.0138581 C203.84582,41.5413419 204.036401,42.5403097 203.564014,43.2403097 C202.858594,44.2853419 201.88311,44.6050839 200.977175,43.9972129 C199.719884,43.1536 198.36053,42.6432774 196.853046,42.5800516 C195.093562,42.5059871 193.519239,43.033471 192.028014,43.9845677 C191.569175,44.2772129 190.768917,44.3756645 190.272143,44.1832774 C189.607368,43.9258581 189.009433,43.3514065 188.873949,42.3488258 C189.172917,41.9261161 189.391497,41.3995355 189.784401,41.0969548 C193.581562,38.1714065 199.303497,38.1542452 203.137691,41.0138581 Z M208.334401,35.2175871 C208.826659,35.6023613 209.176207,36.1695871 209.743433,36.8289419 C209.122917,37.5199097 208.697497,38.1729419 208.106788,38.601071 C207.528723,39.0201677 206.841368,38.841329 206.264207,38.377071 C204.08111,36.6184903 201.628852,35.4659742 198.836078,35.0703613 C194.330788,34.4317806 190.301497,35.5310065 186.745497,38.3707484 C185.57311,39.3073935 184.108981,38.9352645 183.58782,37.5280387 C183.325884,36.8226194 183.47853,36.1903613 184.101755,35.6673935 C187.600852,32.7364258 191.616594,31.2126839 196.18511,31.1332 C200.72382,31.0537161 204.771175,32.4320387 208.334401,35.2175871 Z M195.951626,23.3740387 C203.072659,23.5013935 208.908401,25.5770065 213.935755,29.8357161 C215.240917,30.9412645 215.165046,32.119071 213.742465,33.0638452 C212.981949,33.5687484 212.399368,33.4919742 211.484401,32.7097806 C209.194723,30.7515871 206.641304,29.2278452 203.763626,28.3517161 C195.788143,25.9220387 188.474723,27.2380387 181.890207,32.4008774 C181.571368,32.6501677 181.281433,32.9373935 180.950852,33.1686194 C180.276143,33.6382968 179.614078,33.6039742 178.966465,33.0782968 C178.097562,32.3728774 177.80853,31.7081032 178.14182,30.9213935 C178.270078,30.6197161 178.511239,30.3415226 178.761433,30.1202323 C182.645304,26.675329 187.172272,24.5717161 192.283626,23.7452645 C193.676401,23.5203613 195.096272,23.4571355 195.951626,23.3740387 Z" id="Combined-Shape" fill="#FFFFFF"></path>
                    </g>
                </g>
                <text id="The-Art-of-Living-Sm" font-family=".AppleSystemUIFont" font-size="18" font-weight="normal" line-spacing="36" letter-spacing="0.132352941" fill="#FFFFFF">
                    <tspan x="29.0419922" y="83">THE ART OF LIVING </tspan>
                    <tspan x="80.4962661" y="119">SMART</tspan>
                </text>
            </g>
        </g>
    </g>
</svg>