<svg width="222" height="56" viewBox="0 0 222 56" fill="none" xmlns="http://www.w3.org/2000/svg">
<path fill-rule="evenodd" clip-rule="evenodd" d="M119.251 5.95811C119.249 5.49559 119.246 5.01719 119.246 4.51611C118.96 4.71166 118.704 4.90099 118.464 5.07843C117.977 5.43782 117.557 5.74842 117.092 5.96308C115.68 6.61521 115.03 7.60334 115.3 9.16773C115.4 9.7476 115.129 10.0402 114.518 9.98966C114.36 9.97602 114.201 9.98196 114.042 9.9879C113.969 9.99062 113.897 9.99333 113.824 9.99418C113.008 10.0024 112.625 9.93718 112.446 10.0982C112.269 10.2573 112.29 10.6372 112.287 11.527C112.28 13.4129 112.282 13.4129 114.155 13.4346H114.155C115.295 13.448 115.295 13.4481 115.314 14.5562L115.314 14.5826C115.328 15.3385 115.336 16.0949 115.345 16.8513C115.366 18.8117 115.387 20.7726 115.501 22.7279C115.625 24.8342 116.555 26.5648 118.746 27.1645C119.709 27.4284 120.731 27.4906 121.743 27.5521C121.915 27.5626 122.088 27.573 122.259 27.5845C122.453 27.598 122.831 27.2214 122.852 26.9992C122.897 26.5366 122.892 26.0698 122.887 25.6024C122.884 25.2878 122.88 24.9729 122.892 24.659C122.915 24.0836 122.652 23.9273 122.116 23.9002C119.905 23.7873 119.346 23.2653 119.282 21.074C119.242 19.6934 119.244 18.3118 119.247 16.9302C119.249 16.0268 119.25 15.1234 119.24 14.2204C119.233 13.599 119.518 13.4084 120.085 13.4246C120.146 13.4263 120.207 13.4281 120.268 13.4298C120.931 13.4488 121.596 13.4678 122.251 13.3975C122.478 13.3731 122.825 13.0353 122.847 12.8131C122.924 12.0689 122.919 11.3093 122.854 10.5623C122.836 10.36 122.51 10.0448 122.301 10.0231C121.614 9.95353 120.912 9.95082 120.222 10.005C119.437 10.0655 119.215 9.72773 119.234 8.9925C119.262 8.00985 119.257 7.02632 119.251 5.95811ZM150.935 24.0828C153.887 24.127 156.362 21.7723 156.435 18.8549C156.508 15.9158 154.122 13.5385 151.022 13.4645C148.003 13.3913 145.476 15.7523 145.436 18.6833C145.395 21.6639 147.812 24.0367 150.935 24.0828ZM156.126 12.3255V7.97646V6.58911C156.126 5.88722 156.126 5.53927 156.301 5.36575C156.472 5.19517 156.811 5.19314 157.483 5.18911C158.809 5.18052 159.471 5.17623 159.802 5.50524C160.132 5.83364 160.132 6.49412 160.132 7.81388C160.132 10.8064 160.132 13.7989 160.132 16.7913C160.132 19.7834 160.132 22.7755 160.132 25.7673C160.132 25.9118 160.132 26.0572 160.13 26.2018C160.117 26.9211 160.11 27.2783 159.928 27.4554C159.749 27.63 159.399 27.6293 158.704 27.6279L158.681 27.6275C158.659 27.6274 158.637 27.6277 158.616 27.627C158.407 27.6229 158.181 27.6412 157.956 27.6595C157.435 27.7016 156.914 27.7437 156.594 27.5105C156.329 27.3188 156.291 26.8174 156.252 26.3129C156.235 26.0808 156.217 25.848 156.177 25.6445C156.164 25.5782 156.131 25.5159 156.085 25.4295C156.059 25.3792 156.028 25.3209 155.994 25.2488C153.852 27.3353 151.333 28.0552 148.481 27.4509C146.439 27.0183 144.729 25.9949 143.436 24.3185C140.808 20.9079 141.043 15.7126 143.884 12.6443C146.418 9.91027 152.068 8.51207 156.126 12.3255ZM114.191 38.0285C115.712 36.4262 117.559 35.7199 119.73 35.859C121.91 35.998 123.687 36.8534 124.98 38.9435C125.121 38.7798 125.252 38.6229 125.377 38.4722C125.628 38.1706 125.857 37.8943 126.109 37.6401C128.813 34.9223 135.024 35.1987 136.963 38.8965C137.471 39.8666 137.86 41.0155 137.898 42.0966C137.98 44.4722 137.975 46.8507 137.97 49.2295V49.2345C137.968 50.4112 137.965 51.588 137.973 52.7646C137.977 53.33 137.77 53.5387 137.211 53.5188C136.431 53.4908 135.649 53.4863 134.871 53.5279C134.176 53.5649 133.977 53.2677 133.983 52.6066C133.999 50.4653 133.997 48.3246 133.994 46.1836C133.993 45.3172 133.992 44.4508 133.993 43.5842C133.993 42.3658 133.774 41.2151 132.887 40.3046C131.662 39.0473 130.13 39.0383 128.609 39.4628C127.255 39.8413 126.443 40.8782 126.151 42.2448C126.008 42.9159 125.984 43.6213 125.979 44.3122C125.96 47.0879 125.949 49.8644 125.985 52.6391C125.994 53.3445 125.744 53.5613 125.082 53.5224C124.39 53.4818 123.691 53.4646 123.002 53.5197C122.248 53.5793 121.995 53.3237 122.005 52.5497C122.046 49.6873 122.038 46.8241 122.007 43.9618C122 43.2184 121.926 42.4516 121.73 41.738C121.292 40.1502 120.301 39.4059 118.573 39.2578C116.913 39.1151 115.479 39.6227 114.691 41.1338C114.268 41.944 114.053 42.943 114.027 43.8661C113.944 46.7844 113.974 49.7063 114.006 52.6264C114.013 53.3138 113.798 53.5586 113.116 53.5179C112.367 53.4728 111.613 53.4962 110.861 53.5215C110.333 53.5378 110.072 53.3833 110.074 52.789C110.092 47.3823 110.092 41.9756 110.081 36.568C110.08 36.0333 110.283 35.849 110.797 35.8662C111.577 35.8924 112.36 35.9095 113.139 35.8689C113.767 35.8355 114.06 36.0251 113.984 36.6953C113.954 36.9661 113.962 37.2411 113.97 37.5163V37.5164V37.5165V37.5166V37.5167V37.5168V37.5169V37.517V37.5171V37.5172V37.5173V37.5174C113.973 37.643 113.977 37.7687 113.977 37.8939L114.191 38.0285ZM89.684 45.2042C89.6853 44.3229 89.6867 43.4417 89.6867 42.5605H89.6813C89.6813 41.6943 89.6804 40.828 89.6795 39.9617V39.9616V39.9616V39.9615V39.9614C89.6767 37.416 89.674 34.8703 89.6949 32.3252C89.7003 31.6839 89.5106 31.4364 88.8612 31.4734C88.1404 31.515 87.4133 31.5168 86.6944 31.4698C85.9799 31.4238 85.7342 31.6875 85.7433 32.4092C85.7595 33.6231 85.7564 34.8375 85.7532 36.0519V36.0533C85.75 37.2672 85.7469 38.4811 85.7631 39.6946C85.7722 40.3856 85.54 40.596 84.8617 40.5861C82.5504 40.5536 80.2354 40.5508 77.924 40.5906C77.1924 40.6032 76.9883 40.3521 76.9991 39.644C77.0154 38.4626 77.012 37.2809 77.0086 36.0991V36.0977C77.005 34.8512 77.0013 33.6046 77.0208 32.3586C77.0316 31.6523 76.7842 31.4337 76.1212 31.4707C75.4582 31.5078 74.7871 31.5249 74.1278 31.4626C73.2688 31.3813 73.0547 31.7444 73.0602 32.5555C73.0818 36.4588 73.0791 40.3621 73.0764 44.2654C73.0755 45.5665 73.0746 46.8676 73.0746 48.1687C73.0749 48.6008 73.077 49.0329 73.0791 49.4649V49.465V49.4651V49.4651V49.4652V49.4653V49.4654V49.4654V49.4655V49.4656V49.4656C73.0844 50.5371 73.0897 51.6085 73.0665 52.6794C73.052 53.3261 73.2941 53.5537 73.9291 53.5212C74.6778 53.4823 75.4329 53.4859 76.1826 53.5257C76.8311 53.56 77.0289 53.3044 77.0217 52.6676C77.0072 51.5231 77.0092 50.3785 77.0112 49.2341C77.0134 47.95 77.0156 46.666 76.9946 45.3822C76.9829 44.6108 77.1807 44.301 78.0098 44.3209C79.4412 44.3549 80.8725 44.3499 82.3036 44.3449H82.3036H82.3037H82.3038H82.3039H82.304H82.3041H82.3042H82.3043H82.3044H82.3045C83.0414 44.3424 83.7782 44.3398 84.5149 44.3426C85.7487 44.348 85.7541 44.357 85.7559 45.5999C85.7569 46.0893 85.7583 46.5787 85.7598 47.0682V47.0696C85.7655 48.9217 85.7712 50.7739 85.7469 52.6261C85.7369 53.3071 85.9627 53.5645 86.6474 53.5176C87.3384 53.4715 88.0393 53.4616 88.7275 53.5239C89.5115 53.5943 89.7093 53.2854 89.7021 52.5349C89.6762 50.0919 89.6801 47.648 89.684 45.2042ZM17.5274 13.0271C16.1446 10.8829 14.3797 9.48557 11.7892 9.39254C9.53928 9.31125 7.55308 9.94351 5.93721 11.5323C3.06225 14.3594 3.29257 19.3054 6.39334 21.9799C9.8816 24.9876 14.5486 24.1196 17.7776 19.7986C18.9121 20.3604 20.061 20.9303 21.2053 21.4985C19.8306 24.7736 15.4003 28.4082 9.6007 27.542C3.98625 26.7038 0.202633 22.5589 0.00843932 17.1296C-0.192077 11.5287 3.19502 7.09022 8.62612 5.79318C13.8531 4.54402 18.9708 7.21757 20.91 10.9876C20.4316 11.2762 19.9515 11.5656 19.4624 11.8604L19.4613 11.861L19.4601 11.8618L19.4594 11.8622L19.4592 11.8623C18.8348 12.2387 18.1959 12.6238 17.5274 13.0271ZM90.2762 16.4415H80.254C80.5466 14.8121 82.6168 13.4455 84.7765 13.3741C87.7571 13.2748 89.7577 14.3487 90.2762 16.4415ZM83.2066 23.8841C81.533 23.269 79.8728 21.3623 80.0165 19.8683C80.1145 19.862 80.2141 19.8539 80.3148 19.8458L80.3149 19.8458C80.5434 19.8273 80.7774 19.8084 81.0118 19.8078C82.4791 19.803 83.947 19.8034 85.415 19.8039L86.7365 19.8042C87.3379 19.8042 87.9394 19.8039 88.5408 19.8037C90.1947 19.803 91.8486 19.8023 93.5025 19.8069C93.9695 19.8087 94.3543 19.8033 94.3678 19.153C94.4121 17.0132 94.0192 15.0153 92.6445 13.2983C90.5155 10.6401 87.6668 9.74588 84.3953 10.0132C81.0217 10.2887 78.4665 11.9416 76.997 14.9927C75.4633 18.1739 75.7731 21.3162 77.8839 24.1541C80.7652 28.029 87.0734 28.8608 90.9961 25.9633C92.0628 25.1739 92.9895 24.2517 93.5621 22.9492C93.3176 22.8072 93.0803 22.669 92.8479 22.5337L92.8474 22.5334L92.8457 22.5324C92.2925 22.2102 91.7673 21.9044 91.2399 21.6025C91.0738 21.5075 90.9015 21.4221 90.733 21.3386C90.6533 21.299 90.5744 21.2599 90.4975 21.2205C88.0633 24.1126 85.9181 24.8794 83.2066 23.8841ZM126.99 16.4746H137.034C136.72 14.6229 134.916 13.446 132.423 13.3774C129.681 13.3024 127.416 14.5462 126.99 16.4746ZM126.67 19.8779C127.142 22.1116 128.44 23.3896 130.396 24.0002C133.031 24.8222 135.036 23.9894 137.297 21.1885C137.798 21.4753 138.301 21.7644 138.816 22.0595L138.816 22.0599L138.912 22.1147L138.933 22.127L138.943 22.1327C139.415 22.4033 139.896 22.6793 140.391 22.9633C138.887 25.6432 136.691 27.1823 133.759 27.5562C131.004 27.9076 128.401 27.4316 126.148 25.6576C121.606 22.0809 121.857 14.8894 126.638 11.617C130.786 8.77907 136.605 9.58475 139.517 13.4054C140.825 15.1233 141.222 17.0951 141.127 19.2104C141.1 19.8229 140.735 19.8138 140.357 19.8044C140.31 19.8032 140.263 19.802 140.217 19.802C138.314 19.8037 136.412 19.804 134.509 19.8043C132.335 19.8047 130.16 19.805 127.986 19.8075C127.724 19.8075 127.462 19.8256 127.164 19.8462C127.011 19.8568 126.848 19.8681 126.67 19.8779ZM148.184 39.3088C150.858 39.3133 152.771 40.4722 153.077 42.3933H143.099C143.387 40.6131 145.601 39.3061 148.184 39.3088ZM154.114 47.5495L153.32 47.0955C153.248 47.2017 153.186 47.2947 153.13 47.3791C153.033 47.5238 152.953 47.6435 152.872 47.7621C151.556 49.6914 149.676 50.3273 147.442 50.0906C145.299 49.8648 143.796 48.7484 142.975 46.7433C142.615 45.8617 142.699 45.7217 143.623 45.7181C145.296 45.7117 146.97 45.7121 148.642 45.7126C149.312 45.7128 149.981 45.713 150.65 45.7127L151.617 45.7126C153.232 45.7125 154.848 45.7124 156.463 45.7154C156.861 45.7163 157.203 45.7073 157.224 45.1491C157.318 42.5126 156.647 40.1542 154.668 38.3153C151.581 35.4484 146.881 35.0348 143.164 37.254C137.779 40.4704 137.52 48.4287 142.68 51.9486C144.942 53.4931 147.452 53.7406 150.074 53.4163C152.648 53.0984 154.562 51.7083 156.029 49.6345L156.048 49.6085L156.06 49.591L156.092 49.5474C156.308 49.2521 156.541 48.933 156.018 48.6355C155.394 48.2804 154.77 47.9239 154.119 47.552L154.114 47.5495ZM99.8675 49.9129C102.797 49.9499 105.178 47.6792 105.228 44.8006C105.276 41.9527 102.919 39.5294 100.039 39.4707C97.1388 39.412 94.6486 41.8046 94.6251 44.6733C94.6026 47.5491 96.9293 49.8749 99.8675 49.9129ZM99.9009 53.5321C94.5276 53.6622 90.6753 49.174 90.7864 44.5586C90.9038 39.6739 94.9458 35.809 100.048 35.8524C105.041 35.8939 109.138 39.9106 109.107 44.7004C109.074 49.5687 104.972 53.6947 99.9009 53.5321ZM30.4419 13.6055C33.4858 13.4492 35.9055 15.6187 36.0383 18.6229C36.1638 21.4644 33.9013 23.848 30.9459 23.9844C28.0764 24.1172 25.588 21.8519 25.466 18.9941C25.3432 16.1453 27.5525 13.7536 30.4419 13.6055ZM39.8743 18.7665C39.877 13.7987 35.9218 9.9781 30.7752 9.9781C25.6187 9.9772 21.584 13.8611 21.5903 18.8162C21.5975 23.6954 25.6982 27.6515 30.7418 27.6434C35.8965 27.6362 39.8716 23.7713 39.8743 18.7665ZM44.8712 12.3497C46.1177 11.134 47.2864 10.2867 48.7768 10.0916C51.1116 9.78635 53.3417 9.94441 55.1761 11.6931C56.5897 13.0398 57.1379 14.7604 57.1777 16.622C57.2235 18.8043 57.2221 20.9873 57.2207 23.1702C57.2199 24.4295 57.2191 25.6887 57.2273 26.9476C57.2301 27.439 57.0322 27.6296 56.5644 27.6251C56.4032 27.6234 56.2419 27.6211 56.0806 27.6188L56.0801 27.6188L56.0796 27.6188L56.0791 27.6188H56.079C55.4308 27.6096 54.7817 27.6003 54.1356 27.635C53.4428 27.6729 53.2378 27.3875 53.245 26.7227C53.2721 24.0916 53.264 21.4587 53.255 18.8267C53.2532 18.1629 53.2342 17.4954 53.1646 16.8351C52.9732 15.0214 51.9146 13.7669 50.3213 13.4137C48.3324 12.972 46.3073 13.6792 45.5261 15.3132C45.0934 16.2173 44.8748 17.2949 44.8414 18.3038C44.7502 21.0478 44.7836 23.7981 44.8242 26.5457C44.8369 27.3658 44.5984 27.7226 43.7467 27.635C43.3771 27.597 43.0033 27.6064 42.6297 27.6158H42.6296H42.6296H42.6295C42.4526 27.6203 42.2757 27.6247 42.0992 27.6242C40.9377 27.6205 40.935 27.6196 40.935 26.4861C40.9339 23.7286 40.9338 20.9709 40.9337 18.2129V18.2129V18.2129V18.2128C40.9336 16.3717 40.9335 14.5305 40.9332 12.6893C40.9332 12.504 40.9348 12.3186 40.9364 12.1331V12.133V12.1328V12.1327V12.1326V12.1325V12.1324C40.9403 11.6816 40.9442 11.2305 40.925 10.7808C40.8988 10.1756 41.1572 9.95976 41.7515 9.98867C42.4722 10.0248 43.2002 10.042 43.9183 9.98415C44.6454 9.92544 44.8261 10.266 44.799 10.9C44.7883 11.1554 44.8071 11.4123 44.8314 11.7459C44.8443 11.9221 44.8587 12.1197 44.8712 12.3497ZM63.1352 11.9772C63.0077 12.0896 62.8663 12.2143 62.702 12.3563C62.6911 12.1255 62.6774 11.9191 62.6648 11.7289V11.7288C62.6397 11.3497 62.6189 11.0355 62.6333 10.7233C62.6595 10.1479 62.4157 9.95462 61.8629 9.98533C61.4511 10.0081 61.0381 10.0032 60.625 9.99835H60.625H60.6249C60.4309 9.99606 60.2368 9.99378 60.0429 9.99436C58.8344 9.99887 58.8344 9.99978 58.8353 11.1695C58.8359 11.7566 58.8367 12.3439 58.8375 12.9311L58.8375 12.9391C58.8391 14.1127 58.8407 15.2864 58.8407 16.4596C58.8407 17.23 58.8413 18.0003 58.842 18.7706C58.8442 21.4118 58.8464 24.0529 58.8226 26.6941C58.8163 27.4113 59.0529 27.684 59.7674 27.6362C60.4286 27.591 61.0988 27.5901 61.7608 27.6335C62.4337 27.6777 62.674 27.442 62.6631 26.7483C62.6279 24.3782 62.636 22.0073 62.6586 19.6363L62.6605 19.4152C62.6679 18.5364 62.6753 17.6467 62.8302 16.7893C63.2376 14.5358 65.0314 13.1882 67.3093 13.3146C69.6162 13.442 70.8653 14.6848 71.0451 17.1407C71.1217 18.1823 71.1242 19.23 71.1267 20.2767C71.1273 20.5017 71.1278 20.7266 71.1291 20.9514C71.1408 22.8888 71.1417 24.8253 71.1218 26.7627C71.1146 27.3787 71.3224 27.6606 71.9781 27.628C72.6849 27.5933 73.3945 27.6069 74.1032 27.6205L74.406 27.6262C74.8531 27.6353 75.1105 27.5115 75.1078 26.9958C75.1015 25.8269 75.1065 24.6577 75.1115 23.4886C75.1217 21.1299 75.1318 18.7715 75.0491 16.4163C74.956 13.759 73.8442 11.5208 71.2239 10.5246C68.6407 9.54184 66.062 9.62855 63.7624 11.4431C63.5638 11.5992 63.3741 11.7665 63.1352 11.9772ZM108.982 20.9224C110.099 21.3686 111.19 21.8039 112.354 22.2682C111.759 23.9816 110.618 25.1766 109.227 26.1349C104.945 29.0803 98.6822 27.683 96.0186 23.2175C92.7544 17.743 96.4603 10.5552 102.828 10.0196C106.502 9.70975 109.548 10.8406 111.698 13.9621C112.467 15.0821 112.441 15.1399 111.206 15.6602C111.159 15.6801 111.112 15.7011 111.065 15.722L111.065 15.7221C110.98 15.7601 110.895 15.798 110.808 15.83C110.639 15.8926 110.467 15.9744 110.294 16.0563C109.887 16.2497 109.479 16.4435 109.11 16.3864C108.819 16.3412 108.574 16.0157 108.326 15.6868C108.207 15.5292 108.088 15.3708 107.963 15.242C105.955 13.1772 102.591 13.0381 100.415 14.9241C98.3273 16.7332 98.0482 19.8123 99.7715 22.0234C101.92 24.7801 106.394 24.6039 108.468 21.6793C108.577 21.5255 108.682 21.369 108.796 21.1976L108.797 21.1971L108.798 21.195C108.856 21.1084 108.917 21.0181 108.982 20.9224Z" fill="#FF6A07"/>
<path fill-rule="evenodd" clip-rule="evenodd" d="M189.199 52.3772V48.7345H188.389L185.362 48.7319C182.842 48.7296 180.323 48.7273 177.803 48.7273C175.451 48.7282 174.632 47.9126 174.632 45.5353C174.631 42.8933 174.632 40.2513 174.633 37.6092V37.6092V37.6091C174.635 31.4001 174.637 25.191 174.618 18.9822C174.614 17.6166 175.065 16.6429 176.227 15.8598C179.32 13.7772 182.39 11.6619 185.461 9.5465L185.461 9.54629L185.461 9.5462L185.462 9.5458L185.463 9.54479C186.865 8.579 188.267 7.6132 189.671 6.6505C193.731 3.86676 199.174 3.8207 203.226 6.60354C205.361 8.07061 207.484 9.55636 209.606 11.0421L209.607 11.0422L209.607 11.0424L209.607 11.0426L209.607 11.0426C211.912 12.6558 214.216 14.2689 216.537 15.858C217.664 16.6284 218.097 17.5588 218.091 18.9073C218.064 25.3265 218.067 31.7461 218.07 38.1659C218.071 40.7133 218.072 43.2607 218.071 45.8081C218.071 47.8457 217.212 48.7191 215.185 48.7237C213.607 48.7272 212.028 48.7275 210.449 48.7279C207.574 48.7285 204.698 48.7291 201.823 48.749C201.171 48.7535 200.788 48.5656 200.427 47.9993C199.141 45.9815 196.633 45.2526 194.484 46.1937C192.568 47.0328 191.512 48.8772 191.667 51.1109C191.797 52.9679 193.271 54.6841 195.173 55.1926C197.149 55.7201 199.266 54.9568 200.386 53.1892C200.773 52.5759 201.195 52.4251 201.86 52.4278C206.314 52.4495 210.768 52.4531 215.222 52.4215C216.021 52.4151 216.855 52.3348 217.609 52.0909C220.171 51.2572 221.771 48.972 221.773 46.2208C221.784 36.8779 221.792 27.5349 221.77 18.1919C221.765 16.1326 220.913 14.4426 219.198 13.2441C218.041 12.4349 216.885 11.6244 215.729 10.8138L215.724 10.8105C212.409 8.48591 209.094 6.16127 205.756 3.87037C199.951 -0.115562 193.261 -0.163433 187.402 3.76379C184.447 5.74468 181.519 7.76348 178.59 9.78212L178.59 9.78223L178.59 9.78235L178.589 9.78246C176.998 10.8794 175.407 11.9763 173.811 13.067C171.895 14.3767 170.967 16.1615 170.972 18.4945C170.985 23.8884 170.984 29.2822 170.984 34.6761C170.984 38.4518 170.984 42.2275 170.988 46.0031C170.989 46.6056 171.017 47.2261 171.164 47.806C171.885 50.6475 174.228 52.4097 177.308 52.4287C180.269 52.4465 183.229 52.4435 186.19 52.4406C186.99 52.4398 187.789 52.439 188.589 52.4386C188.742 52.4386 188.895 52.4175 189.034 52.3984H189.034L189.034 52.3984C189.092 52.3904 189.147 52.3828 189.199 52.3772ZM213.936 29.8357C208.908 25.577 203.073 23.5014 195.952 23.374C195.714 23.3971 195.432 23.4187 195.119 23.4427C194.308 23.5048 193.289 23.5829 192.284 23.7452C187.172 24.5717 182.645 26.6753 178.761 30.1202C178.511 30.3415 178.27 30.6197 178.142 30.9214C177.809 31.7081 178.098 32.3728 178.966 33.0783C179.614 33.6039 180.276 33.6383 180.951 33.1686C181.146 33.0318 181.328 32.8754 181.509 32.7189L181.509 32.7189C181.635 32.6108 181.76 32.5027 181.89 32.4008C188.475 27.238 195.788 25.922 203.764 28.3517C206.641 29.2278 209.195 30.7515 211.484 32.7097C212.399 33.4919 212.982 33.5687 213.742 33.0638C215.165 32.119 215.241 30.9412 213.936 29.8357ZM209.198 37.472L209.198 37.4721L209.198 37.4721C208.835 37.9134 208.509 38.3094 208.107 38.601C207.529 39.0201 206.841 38.8413 206.264 38.377C204.081 36.6185 201.629 35.4659 198.836 35.0703C194.331 34.4317 190.301 35.531 186.745 38.3707C185.573 39.3074 184.109 38.9352 183.588 37.528C183.326 36.8226 183.479 36.1903 184.102 35.6674C187.601 32.7364 191.617 31.2126 196.185 31.1332C200.724 31.0537 204.771 32.432 208.334 35.2175C208.661 35.4728 208.925 35.8083 209.231 36.1977C209.386 36.3953 209.552 36.6069 209.743 36.8289C209.546 37.0491 209.368 37.2655 209.198 37.472ZM189.141 41.9271C189.055 42.0711 188.968 42.2152 188.874 42.3488C189.009 43.3514 189.607 43.9258 190.272 44.1832C190.769 44.3756 191.569 44.2772 192.028 43.9845C193.519 43.0334 195.094 42.5059 196.853 42.58C198.361 42.6432 199.72 43.1536 200.977 43.9972C201.883 44.605 202.859 44.2853 203.564 43.2403C204.036 42.5403 203.846 41.5413 203.138 41.0138C199.303 38.1542 193.582 38.1714 189.784 41.0969C189.516 41.3038 189.329 41.6155 189.141 41.9271Z" fill="white"/>
</svg>
