<svg width="30" height="30" viewBox="0 0 30 30" fill="none" xmlns="http://www.w3.org/2000/svg">
<path d="M30 15C30 14.5313 29.6196 14.1509 29.1509 14.1509H28.3704L29.1849 13.3364C29.5166 13.0047 29.5166 12.4675 29.1849 12.1358C28.8532 11.8042 28.316 11.8042 27.9843 12.1358L25.9692 14.1509H23.8421L24.6566 13.3364C24.9883 13.0047 24.9883 12.4675 24.6566 12.1358C24.3249 11.8042 23.7877 11.8042 23.456 12.1358L21.4409 14.1509H17.0496L22.71 8.49057H25.7547C26.2234 8.49057 26.6038 8.11019 26.6038 7.64151C26.6038 7.17283 26.2234 6.79245 25.7547 6.79245H24.4081L25.7887 5.41189C26.1204 5.08019 26.1204 4.54302 25.7887 4.21132C25.457 3.87962 24.9198 3.87962 24.5881 4.21132L23.2075 5.59189V4.24528C23.2075 3.7766 22.8272 3.39623 22.3585 3.39623C21.8898 3.39623 21.5094 3.7766 21.5094 4.24528V7.29L15.8491 12.9504V8.55906L17.8647 6.5434C18.1964 6.2117 18.1964 5.67453 17.8647 5.34283C17.533 5.01113 16.9958 5.01113 16.6642 5.34283L15.8491 6.15792V4.03075L17.8647 2.01509C18.1964 1.6834 18.1964 1.14623 17.8647 0.814528C17.533 0.48283 16.9958 0.48283 16.6642 0.814528L15.8491 1.62962V0.849057C15.8491 0.380377 15.4687 0 15 0C14.5313 0 14.1509 0.380377 14.1509 0.849057V1.62962L13.3364 0.815094C13.0047 0.483396 12.4675 0.483396 12.1358 0.815094C11.8042 1.14679 11.8042 1.68396 12.1358 2.01566L14.1509 4.03075V6.15792L13.3364 5.3434C13.0047 5.0117 12.4675 5.0117 12.1358 5.3434C11.8042 5.67509 11.8042 6.21226 12.1358 6.54396L14.1509 8.55906V12.9504L8.49057 7.29V4.24528C8.49057 3.7766 8.11019 3.39623 7.64151 3.39623C7.17283 3.39623 6.79245 3.7766 6.79245 4.24528V5.59189L5.41189 4.21075C5.08019 3.87906 4.54302 3.87906 4.21132 4.21075C3.87962 4.54245 3.87962 5.07962 4.21132 5.41132L5.59189 6.79245H4.24528C3.7766 6.79245 3.39623 7.17283 3.39623 7.64151C3.39623 8.11019 3.7766 8.49057 4.24528 8.49057H7.29L12.9504 14.1509H8.55906L6.5434 12.1353C6.2117 11.8036 5.67453 11.8036 5.34283 12.1353C5.01113 12.467 5.01113 13.0042 5.34283 13.3358L6.15792 14.1509H4.03075L2.01509 12.1353C1.6834 11.8036 1.14623 11.8036 0.814528 12.1353C0.48283 12.467 0.48283 13.0042 0.814528 13.3358L1.62962 14.1509H0.849057C0.380377 14.1509 0 14.5313 0 15C0 15.4687 0.380377 15.8491 0.849057 15.8491H1.62962L0.815094 16.6636C0.483396 16.9953 0.483396 17.5325 0.815094 17.8642C0.980377 18.0306 1.19774 18.1132 1.41509 18.1132C1.63245 18.1132 1.84981 18.0306 2.01566 17.8647L4.03075 15.8491H6.15792L5.3434 16.6636C5.0117 16.9953 5.0117 17.5325 5.3434 17.8642C5.50868 18.0306 5.72604 18.1132 5.9434 18.1132C6.16075 18.1132 6.37811 18.0306 6.54396 17.8647L8.55906 15.8491H12.9504L7.29 21.5094H4.24528C3.7766 21.5094 3.39623 21.8898 3.39623 22.3585C3.39623 22.8272 3.7766 23.2075 4.24528 23.2075H5.59189L4.21132 24.5881C3.87962 24.9198 3.87962 25.457 4.21132 25.7887C4.3766 25.9551 4.59396 26.0377 4.81132 26.0377C5.02868 26.0377 5.24604 25.9551 5.41189 25.7892L6.79245 24.4081V25.7547C6.79245 26.2234 7.17283 26.6038 7.64151 26.6038C8.11019 26.6038 8.49057 26.2234 8.49057 25.7547V22.71L14.1509 17.0496V21.4409L12.1353 23.4566C11.8036 23.7883 11.8036 24.3255 12.1353 24.6572C12.3011 24.823 12.5185 24.9057 12.7358 24.9057C12.9532 24.9057 13.1706 24.823 13.3364 24.6572L14.1509 23.8421V25.9692L12.1353 27.9849C11.8036 28.3166 11.8036 28.8538 12.1353 29.1855C12.3011 29.3513 12.5185 29.434 12.7358 29.434C12.9532 29.434 13.1706 29.3513 13.3364 29.1855L14.1509 28.3704V29.1509C14.1509 29.6196 14.5313 30 15 30C15.4687 30 15.8491 29.6196 15.8491 29.1509V28.3704L16.6636 29.1849C16.8294 29.3513 17.0468 29.434 17.2642 29.434C17.4815 29.434 17.6989 29.3513 17.8647 29.1855C18.1964 28.8538 18.1964 28.3166 17.8647 27.9849L15.8491 25.9692V23.8421L16.6636 24.6566C16.8294 24.823 17.0468 24.9057 17.2642 24.9057C17.4815 24.9057 17.6989 24.823 17.8647 24.6572C18.1964 24.3255 18.1964 23.7883 17.8647 23.4566L15.8491 21.4409V17.0496L21.5094 22.71V25.7547C21.5094 26.2234 21.8898 26.6038 22.3585 26.6038C22.8272 26.6038 23.2075 26.2234 23.2075 25.7547V24.4081L24.5881 25.7887C24.754 25.9551 24.9713 26.0377 25.1887 26.0377C25.406 26.0377 25.6234 25.9551 25.7892 25.7892C26.1209 25.4575 26.1209 24.9204 25.7892 24.5887L24.4081 23.2075H25.7547C26.2234 23.2075 26.6038 22.8272 26.6038 22.3585C26.6038 21.8898 26.2234 21.5094 25.7547 21.5094H22.71L17.0496 15.8491H21.4409L23.4566 17.8647C23.6219 18.0306 23.8392 18.1132 24.0566 18.1132C24.274 18.1132 24.4913 18.0306 24.6572 17.8647C24.9889 17.533 24.9889 16.9958 24.6572 16.6642L23.8421 15.8491H25.9692L27.9849 17.8647C28.1502 18.0306 28.3675 18.1132 28.5849 18.1132C28.8023 18.1132 29.0196 18.0306 29.1855 17.8647C29.5172 17.533 29.5172 16.9958 29.1855 16.6642L28.3704 15.8491H29.1509C29.6196 15.8491 30 15.4687 30 15Z" fill="black"/>
<mask id="mask0" mask-type="alpha" maskUnits="userSpaceOnUse" x="0" y="0" width="30" height="30">
<path d="M30 15C30 14.5313 29.6196 14.1509 29.1509 14.1509H28.3704L29.1849 13.3364C29.5166 13.0047 29.5166 12.4675 29.1849 12.1358C28.8532 11.8042 28.316 11.8042 27.9843 12.1358L25.9692 14.1509H23.8421L24.6566 13.3364C24.9883 13.0047 24.9883 12.4675 24.6566 12.1358C24.3249 11.8042 23.7877 11.8042 23.456 12.1358L21.4409 14.1509H17.0496L22.71 8.49057H25.7547C26.2234 8.49057 26.6038 8.11019 26.6038 7.64151C26.6038 7.17283 26.2234 6.79245 25.7547 6.79245H24.4081L25.7887 5.41189C26.1204 5.08019 26.1204 4.54302 25.7887 4.21132C25.457 3.87962 24.9198 3.87962 24.5881 4.21132L23.2075 5.59189V4.24528C23.2075 3.7766 22.8272 3.39623 22.3585 3.39623C21.8898 3.39623 21.5094 3.7766 21.5094 4.24528V7.29L15.8491 12.9504V8.55906L17.8647 6.5434C18.1964 6.2117 18.1964 5.67453 17.8647 5.34283C17.533 5.01113 16.9958 5.01113 16.6642 5.34283L15.8491 6.15792V4.03075L17.8647 2.01509C18.1964 1.6834 18.1964 1.14623 17.8647 0.814528C17.533 0.48283 16.9958 0.48283 16.6642 0.814528L15.8491 1.62962V0.849057C15.8491 0.380377 15.4687 0 15 0C14.5313 0 14.1509 0.380377 14.1509 0.849057V1.62962L13.3364 0.815094C13.0047 0.483396 12.4675 0.483396 12.1358 0.815094C11.8042 1.14679 11.8042 1.68396 12.1358 2.01566L14.1509 4.03075V6.15792L13.3364 5.3434C13.0047 5.0117 12.4675 5.0117 12.1358 5.3434C11.8042 5.67509 11.8042 6.21226 12.1358 6.54396L14.1509 8.55906V12.9504L8.49057 7.29V4.24528C8.49057 3.7766 8.11019 3.39623 7.64151 3.39623C7.17283 3.39623 6.79245 3.7766 6.79245 4.24528V5.59189L5.41189 4.21075C5.08019 3.87906 4.54302 3.87906 4.21132 4.21075C3.87962 4.54245 3.87962 5.07962 4.21132 5.41132L5.59189 6.79245H4.24528C3.7766 6.79245 3.39623 7.17283 3.39623 7.64151C3.39623 8.11019 3.7766 8.49057 4.24528 8.49057H7.29L12.9504 14.1509H8.55906L6.5434 12.1353C6.2117 11.8036 5.67453 11.8036 5.34283 12.1353C5.01113 12.467 5.01113 13.0042 5.34283 13.3358L6.15792 14.1509H4.03075L2.01509 12.1353C1.6834 11.8036 1.14623 11.8036 0.814528 12.1353C0.48283 12.467 0.48283 13.0042 0.814528 13.3358L1.62962 14.1509H0.849057C0.380377 14.1509 0 14.5313 0 15C0 15.4687 0.380377 15.8491 0.849057 15.8491H1.62962L0.815094 16.6636C0.483396 16.9953 0.483396 17.5325 0.815094 17.8642C0.980377 18.0306 1.19774 18.1132 1.41509 18.1132C1.63245 18.1132 1.84981 18.0306 2.01566 17.8647L4.03075 15.8491H6.15792L5.3434 16.6636C5.0117 16.9953 5.0117 17.5325 5.3434 17.8642C5.50868 18.0306 5.72604 18.1132 5.9434 18.1132C6.16075 18.1132 6.37811 18.0306 6.54396 17.8647L8.55906 15.8491H12.9504L7.29 21.5094H4.24528C3.7766 21.5094 3.39623 21.8898 3.39623 22.3585C3.39623 22.8272 3.7766 23.2075 4.24528 23.2075H5.59189L4.21132 24.5881C3.87962 24.9198 3.87962 25.457 4.21132 25.7887C4.3766 25.9551 4.59396 26.0377 4.81132 26.0377C5.02868 26.0377 5.24604 25.9551 5.41189 25.7892L6.79245 24.4081V25.7547C6.79245 26.2234 7.17283 26.6038 7.64151 26.6038C8.11019 26.6038 8.49057 26.2234 8.49057 25.7547V22.71L14.1509 17.0496V21.4409L12.1353 23.4566C11.8036 23.7883 11.8036 24.3255 12.1353 24.6572C12.3011 24.823 12.5185 24.9057 12.7358 24.9057C12.9532 24.9057 13.1706 24.823 13.3364 24.6572L14.1509 23.8421V25.9692L12.1353 27.9849C11.8036 28.3166 11.8036 28.8538 12.1353 29.1855C12.3011 29.3513 12.5185 29.434 12.7358 29.434C12.9532 29.434 13.1706 29.3513 13.3364 29.1855L14.1509 28.3704V29.1509C14.1509 29.6196 14.5313 30 15 30C15.4687 30 15.8491 29.6196 15.8491 29.1509V28.3704L16.6636 29.1849C16.8294 29.3513 17.0468 29.434 17.2642 29.434C17.4815 29.434 17.6989 29.3513 17.8647 29.1855C18.1964 28.8538 18.1964 28.3166 17.8647 27.9849L15.8491 25.9692V23.8421L16.6636 24.6566C16.8294 24.823 17.0468 24.9057 17.2642 24.9057C17.4815 24.9057 17.6989 24.823 17.8647 24.6572C18.1964 24.3255 18.1964 23.7883 17.8647 23.4566L15.8491 21.4409V17.0496L21.5094 22.71V25.7547C21.5094 26.2234 21.8898 26.6038 22.3585 26.6038C22.8272 26.6038 23.2075 26.2234 23.2075 25.7547V24.4081L24.5881 25.7887C24.754 25.9551 24.9713 26.0377 25.1887 26.0377C25.406 26.0377 25.6234 25.9551 25.7892 25.7892C26.1209 25.4575 26.1209 24.9204 25.7892 24.5887L24.4081 23.2075H25.7547C26.2234 23.2075 26.6038 22.8272 26.6038 22.3585C26.6038 21.8898 26.2234 21.5094 25.7547 21.5094H22.71L17.0496 15.8491H21.4409L23.4566 17.8647C23.6219 18.0306 23.8392 18.1132 24.0566 18.1132C24.274 18.1132 24.4913 18.0306 24.6572 17.8647C24.9889 17.533 24.9889 16.9958 24.6572 16.6642L23.8421 15.8491H25.9692L27.9849 17.8647C28.1502 18.0306 28.3675 18.1132 28.5849 18.1132C28.8023 18.1132 29.0196 18.0306 29.1855 17.8647C29.5172 17.533 29.5172 16.9958 29.1855 16.6642L28.3704 15.8491H29.1509C29.6196 15.8491 30 15.4687 30 15Z" fill="white"/>
</mask>
<g mask="url(#mask0)">
<rect x="-3" y="-3" width="36" height="36" fill="white"/>
</g>
</svg>
