<?xml version="1.0" encoding="UTF-8"?>
<svg width="26px" height="4px" viewBox="0 0 26 4" version="1.1" xmlns="http://www.w3.org/2000/svg" xmlns:xlink="http://www.w3.org/1999/xlink">
    <title>Combined Shape Copy 2</title>
    <g id="Overview" stroke="none" stroke-width="1" fill="none" fill-rule="evenodd">
        <g id="Overview_01" transform="translate(-1391.000000, -255.000000)" fill="#FFFFFF">
            <g id="Group-10" transform="translate(1370.000000, 234.000000)">
                <path d="M34.3765997,21 C41.3821313,21.0306599 47,21.9139858 47,22.9991769 C47,23.770711 44.1603201,24.4402077 40.0011864,24.7737862 L40.0006928,24.385072 C43.5871189,24.1084113 46,23.5913647 46,22.9991769 C46,22.1315878 40.8210076,21.4252811 34.3602263,21.399884 L34,21.3991769 C27.372583,21.3991769 22,22.1155213 22,22.9991769 C22,23.5914201 24.4133325,24.108508 28.0003138,24.3851496 L27.9998181,24.7738667 C23.8401371,24.4403155 21,23.7707731 21,22.9991769 C21,21.9139858 26.6178687,21.0306599 33.6234003,21 L34.3765997,21 Z" id="Combined-Shape-Copy-2"></path>
            </g>
        </g>
    </g>
</svg>