<?xml version="1.0" encoding="UTF-8"?>
<svg width="40px" height="6px" viewBox="0 0 40 6" version="1.1" xmlns="http://www.w3.org/2000/svg" xmlns:xlink="http://www.w3.org/1999/xlink">
    <title>Combined Shape Copy 4</title>
    <g id="Overview" stroke="none" stroke-width="1" fill="none" fill-rule="evenodd" opacity="0.560000002">
        <g id="Overview_01" transform="translate(-1384.000000, -313.000000)" fill="#FFFFFF">
            <g id="Group-10" transform="translate(1370.000000, 234.000000)">
                <path d="M34.4406961,79.0007139 C45.2828846,79.035873 54,80.3652371 54,82 C54,83.6568542 45.045695,85 34,85 C22.954305,85 14,83.6568542 14,82 C14,80.3431458 22.954305,79 34,79 Z M34,79.6 C23.8039738,79.6 15.5384615,80.6745166 15.5384615,82 C15.5384615,83.3065479 23.5695032,84.3692483 33.5642279,84.3993445 L34,84.4 C44.1960262,84.4 52.4615385,83.3254834 52.4615385,82 C52.4615385,80.6745166 44.1960262,79.6 34,79.6 Z" id="Combined-Shape-Copy-4"></path>
            </g>
        </g>
    </g>
</svg>