<svg width="29" height="30" viewBox="0 0 29 30" fill="none" xmlns="http://www.w3.org/2000/svg">
<path d="M20.7729 29.937C18.6901 29.6396 16.7103 28.8548 14.9997 27.6484C13.0173 26.2896 11.1963 24.7159 9.57085 22.9571C7.57429 20.8575 5.54115 18.7848 3.7793 16.4692C2.39238 14.6095 1.15177 12.6598 0.475071 10.4191C0.00449845 8.99456 -0.118719 7.48098 0.115385 6.00085C0.420204 4.23413 1.37124 2.79736 2.67281 1.59455C3.20963 1.12214 3.79264 0.703167 4.41332 0.343755C5.16856 -0.128368 6.13685 -0.113038 6.87626 0.382749C8.60931 1.3976 9.93762 2.96506 10.6408 4.82504C10.8863 5.35872 10.8174 5.98158 10.4609 6.45078C10.025 7.02968 9.57085 7.59359 9.13191 8.1725C8.74479 8.68542 8.34243 9.18934 7.99799 9.72925C7.63432 10.2338 7.64047 10.9109 8.01323 11.409C8.88196 12.6088 9.72326 13.8446 10.6682 14.9874C12.3779 17.0701 14.2711 19.0003 16.3256 20.7555C16.7829 21.1424 17.2736 21.4844 17.7613 21.8353C18.1855 22.1598 18.763 22.2114 19.2397 21.9673C19.7623 21.7138 20.2711 21.4335 20.7638 21.1274C21.4466 20.6985 22.1172 20.2576 22.7878 19.8346C23.3514 19.4797 24.0698 19.4658 24.6472 19.7986C26.3766 20.643 27.7864 22.0093 28.6708 23.698C29.1798 24.5615 29.0924 25.6449 28.4513 26.4186C26.7657 28.5962 24.6106 29.94 21.7453 30C21.4203 29.9953 21.0957 29.9743 20.7729 29.937Z" fill="white"/>
</svg>
