<svg xmlns="http://www.w3.org/2000/svg" xmlns:xlink="http://www.w3.org/1999/xlink" width="24" height="24" viewBox="0 0 24 24">
    <defs>
        <path id="d8haxxccaa" d="M17 10.5V7c0-.55-.45-1-1-1H4c-.55 0-1 .45-1 1v10c0 .55.45 1 1 1h12c.55 0 1-.45 1-1v-3.5l4 4v-11l-4 4z"/>
    </defs>
    <g fill="none" fill-rule="evenodd">
        <g>
            <g>
                <g>
                    <g>
                        <g>
                            <g transform="translate(-1138 -592) translate(778 222) translate(336 56) translate(0 290) translate(16 14) translate(8 10)">
                                <path d="M0 0L24 0 24 24 0 24z"/>
                                <mask id="c96s59ddgb" fill="#fff">
                                    <use xlink:href="#d8haxxccaa"/>
                                </mask>
                                <g fill="#FFF" mask="url(#c96s59ddgb)">
                                    <path d="M0 0H24V24H0z"/>
                                </g>
                            </g>
                        </g>
                    </g>
                </g>
            </g>
        </g>
    </g>
</svg>
