<svg xmlns="http://www.w3.org/2000/svg" xmlns:xlink="http://www.w3.org/1999/xlink" width="24" height="24" viewBox="0 0 24 24">
    <defs>
        <path id="cyv3u2neqa" d="M12.667 8.885v3.158c0 .356-.299.645-.667.645-.368 0-.667-.29-.667-.645V8.885c-1.52.3-2.666 1.602-2.666 3.158 0 1.777 1.495 3.223 3.333 3.223s3.333-1.446 3.333-3.223c0-1.556-1.147-2.859-2.666-3.158zm0 0v3.158c0 .356-.299.645-.667.645-.368 0-.667-.29-.667-.645V8.885c-1.52.3-2.666 1.602-2.666 3.158 0 1.777 1.495 3.223 3.333 3.223s3.333-1.446 3.333-3.223c0-1.556-1.147-2.859-2.666-3.158zm0 0v3.158c0 .356-.299.645-.667.645-.368 0-.667-.29-.667-.645V8.885c-1.52.3-2.666 1.602-2.666 3.158 0 1.777 1.495 3.223 3.333 3.223s3.333-1.446 3.333-3.223c0-1.556-1.147-2.859-2.666-3.158zm0 0v3.158c0 .356-.299.645-.667.645-.368 0-.667-.29-.667-.645V8.885c-1.52.3-2.666 1.602-2.666 3.158 0 1.777 1.495 3.223 3.333 3.223s3.333-1.446 3.333-3.223c0-1.556-1.147-2.859-2.666-3.158zM20 1H4c-1.103 0-2 .868-2 1.934v18.132C2 22.132 2.897 23 4 23h16c1.103 0 2-.868 2-1.934V2.934C22 1.868 21.103 1 20 1zM5.333 3.578c.368 0 .667.289.667.645 0 .355-.299.644-.667.644-.368 0-.666-.289-.666-.644 0-.356.298-.645.666-.645zm0 16.844c-.368 0-.666-.289-.666-.645 0-.355.298-.644.666-.644.368 0 .667.289.667.644 0 .356-.299.645-.667.645zM12 16.555c-2.573 0-4.667-2.024-4.667-4.512 0-2.488 2.094-4.512 4.667-4.512s4.667 2.024 4.667 4.512c0 2.488-2.094 4.512-4.667 4.512zm5.5-2.19c.976-2.172.47-4.753-1.257-6.424-2.34-2.262-6.146-2.262-8.486 0-1.728 1.67-2.233 4.252-1.256 6.423.147.326-.008.706-.345.848-.338.142-.73-.007-.878-.334C4.096 12.25 4.65 9.123 6.815 7.03c2.859-2.765 7.511-2.765 10.37 0 2.166 2.093 2.719 5.22 1.537 7.848-.148.328-.542.475-.878.334-.337-.142-.492-.522-.345-.848zm1.167 6.057c-.368 0-.667-.289-.667-.645 0-.355.299-.644.667-.644.368 0 .666.289.666.644 0 .356-.298.645-.666.645zm0-15.555c-.368 0-.667-.289-.667-.644 0-.356.299-.645.667-.645.368 0 .666.289.666.645 0 .355-.298.644-.666.644zm-6 4.018v3.158c0 .356-.299.645-.667.645-.368 0-.667-.29-.667-.645V8.885c-1.52.3-2.666 1.602-2.666 3.158 0 1.777 1.495 3.223 3.333 3.223s3.333-1.446 3.333-3.223c0-1.556-1.147-2.859-2.666-3.158zm0 0v3.158c0 .356-.299.645-.667.645-.368 0-.667-.29-.667-.645V8.885c-1.52.3-2.666 1.602-2.666 3.158 0 1.777 1.495 3.223 3.333 3.223s3.333-1.446 3.333-3.223c0-1.556-1.147-2.859-2.666-3.158zm0 0v3.158c0 .356-.299.645-.667.645-.368 0-.667-.29-.667-.645V8.885c-1.52.3-2.666 1.602-2.666 3.158 0 1.777 1.495 3.223 3.333 3.223s3.333-1.446 3.333-3.223c0-1.556-1.147-2.859-2.666-3.158z"/>
    </defs>
    <g fill="none" fill-rule="evenodd">
        <g>
            <g>
                <g>
                    <g>
                        <g>
                            <g>
                                <g transform="translate(-1138 -1026) translate(778 222) translate(0 490) translate(336) translate(0 290) translate(16 14) translate(8 10)">
                                    <mask id="ywovk0ev1b" fill="#fff">
                                        <use xlink:href="#cyv3u2neqa"/>
                                    </mask>
                                    <g fill="#FFF" mask="url(#ywovk0ev1b)">
                                        <path d="M0 0H24V24H0z"/>
                                    </g>
                                </g>
                            </g>
                        </g>
                    </g>
                </g>
            </g>
        </g>
    </g>
</svg>
