<svg xmlns="http://www.w3.org/2000/svg" xmlns:xlink="http://www.w3.org/1999/xlink" width="24" height="24" viewBox="0 0 24 24">
    <defs>
        <path id="sc6lw01lya" d="M7.843 5.73c.595 0 1.079.486 1.079 1.082v12.107c0 .596-.484 1.08-1.079 1.08s-1.078-.484-1.078-1.08V6.812c0-.596.483-1.081 1.078-1.081zm3.327 0c.595 0 1.079.486 1.079 1.082v12.107c0 .596-.484 1.08-1.079 1.08-.594 0-1.078-.484-1.078-1.08V6.812c0-.596.483-1.081 1.078-1.081zm3.327 0c.595 0 1.079.486 1.079 1.082v12.107c0 .596-.484 1.08-1.079 1.08s-1.079-.484-1.079-1.08V6.812c0-.596.484-1.081 1.08-1.081zm-9.98 0c.594 0 1.078.486 1.078 1.082v12.107c0 .596-.484 1.08-1.079 1.08s-1.079-.484-1.079-1.08v-7.21H1.19v-1.173H.02V9.364h1.17V8.19h2.248V6.81c0-.595.483-1.08 1.078-1.08zm13.307 0c.595 0 1.079.486 1.079 1.082V8.19h1.077v1.172h-1.077v9.556c0 .596-.484 1.08-1.079 1.08s-1.078-.484-1.078-1.08V6.812c0-.596.483-1.081 1.078-1.081zM9.214 0c0 .518-.145.81-.251 1.022-.083.165-.128.256-.128.497 0 .242.045.333.128.498.106.213.25.504.25 1.022s-.144.809-.25 1.021c-.083.165-.128.256-.128.498h-1.17c0-.518.146-.81.251-1.022.083-.165.128-.256.128-.497 0-.242-.045-.333-.128-.498-.105-.213-.25-.503-.25-1.022 0-.518.144-.809.25-1.021C8 .333 8.044.242 8.044 0zm2.73 0c0 .518-.145.81-.25 1.022-.083.165-.128.256-.128.497 0 .242.045.333.127.498.106.213.251.504.251 1.022s-.145.809-.25 1.021c-.083.165-.128.256-.128.498h-1.17c0-.518.145-.81.251-1.022.082-.165.128-.256.128-.497 0-.242-.046-.333-.128-.498-.106-.213-.251-.503-.251-1.022 0-.518.145-.809.251-1.021.082-.165.128-.256.128-.498zm2.731 0c0 .518-.145.81-.251 1.022-.082.165-.128.256-.128.497 0 .242.046.333.128.498.106.213.251.504.251 1.022s-.145.809-.251 1.021c-.082.165-.128.256-.128.498h-1.17c0-.518.146-.81.252-1.022.082-.165.128-.256.128-.497 0-.242-.046-.333-.128-.498-.106-.213-.251-.503-.251-1.022 0-.518.145-.809.25-1.021.083-.165.129-.256.129-.498z"/>
    </defs>
    <g fill="none" fill-rule="evenodd">
        <g>
            <g>
                <g>
                    <g>
                        <g>
                            <g>
                                <g transform="translate(-802 -1026) translate(778 222) translate(0 490) translate(0 290) translate(16 14) translate(8 10) translate(2 2)">
                                    <mask id="snzzb6zd5b" fill="#fff">
                                        <use xlink:href="#sc6lw01lya"/>
                                    </mask>
                                    <g fill="#FFF" mask="url(#snzzb6zd5b)">
                                        <path d="M0 0H24V24H0z" transform="translate(-2 -2)"/>
                                    </g>
                                </g>
                            </g>
                        </g>
                    </g>
                </g>
            </g>
        </g>
    </g>
</svg>
