<svg xmlns="http://www.w3.org/2000/svg" xmlns:xlink="http://www.w3.org/1999/xlink" width="24" height="24" viewBox="0 0 24 24">
    <defs>
        <path id="703toc4a5a" d="M12 16.643c.958 1.476 2.129 3.546 2.129 4.363 0 1.176-.954 2.129-2.129 2.129s-2.129-.953-2.129-2.129c0-.817 1.171-2.887 2.129-4.363zm5.357-7.857c.197 0 .357.16.357.357v5.714c0 .096-.04.188-.11.254-.064.067-.154.104-.247.103-.197 0-.357-.16-.357-.357V9.143c0-.197.16-.357.357-.357zm-10.714 0c.197 0 .357.16.357.357v5.714c0 .197-.16.357-.357.357-.197 0-.357-.16-.357-.357V9.143c0-.096.04-.188.11-.254.064-.067.154-.104.247-.103zM14.5 7.714v.715c0 .591.48 1.071 1.071 1.071h.715v5h-2.793l.471-2.827L11.14 14.5H7.714v-5h.715C9.02 9.5 9.5 9.02 9.5 8.429v-.715h5zM22 9.5v5h-3.571v-5H22zm-16.429 0v5H2v-5h3.571zm9.286-3.214c.197 0 .357.16.357.357 0 .197-.16.357-.357.357H9.143c-.197 0-.357-.16-.357-.357 0-.096.04-.188.11-.254.064-.067.154-.104.247-.103zM14.5 2v3.571h-5V2h5z"/>
    </defs>
    <g fill="none" fill-rule="evenodd">
        <g>
            <g>
                <g>
                    <g>
                        <g>
                            <g transform="translate(-1004 -542) translate(714 228) translate(24 36) translate(0 150) translate(242 112) translate(24 16)">
                                <mask id="zpionj32db" fill="#fff">
                                    <use xlink:href="#703toc4a5a"/>
                                </mask>
                                <g fill="#FFF" mask="url(#zpionj32db)">
                                    <path d="M0 0H24V24H0z"/>
                                </g>
                            </g>
                        </g>
                    </g>
                </g>
            </g>
        </g>
    </g>
</svg>
