<svg xmlns="http://www.w3.org/2000/svg" xmlns:xlink="http://www.w3.org/1999/xlink" width="24" height="24" viewBox="0 0 24 24">
    <defs>
        <path id="kw1mslid3a" d="M23 11.01L18 11c-.55 0-1 .45-1 1v9c0 .55.45 1 1 1h5c.55 0 1-.45 1-1v-9c0-.55-.45-.99-1-.99zM23 20h-5v-7h5v7zM20 2H2C.89 2 0 2.89 0 4v12c0 1.1.89 2 2 2h7v2H7v2h8v-2h-2v-2h2v-2H2V4h18v5h2V4c0-1.11-.9-2-2-2zm-8.03 7L11 6l-.97 3H7l2.47 1.76-.94 2.91 2.47-1.8 2.47 1.8-.94-2.91L15 9h-3.03z"/>
    </defs>
    <g fill="none" fill-rule="evenodd">
        <g>
            <g>
                <g>
                    <g>
                        <g>
                            <g>
                                <g transform="translate(-1474 -1404) translate(778 222) translate(0 868) translate(672) translate(0 290) translate(16 14) translate(8 10)">
                                    <path d="M0 0L24 0 24 24 0 24z"/>
                                    <mask id="y8mkema0qb" fill="#fff">
                                        <use xlink:href="#kw1mslid3a"/>
                                    </mask>
                                    <g fill="#FFF" mask="url(#y8mkema0qb)">
                                        <path d="M0 0H24V24H0z"/>
                                    </g>
                                </g>
                            </g>
                        </g>
                    </g>
                </g>
            </g>
        </g>
    </g>
</svg>
