<svg xmlns="http://www.w3.org/2000/svg" xmlns:xlink="http://www.w3.org/1999/xlink" width="24" height="24" viewBox="0 0 24 24">
    <defs>
        <path id="1twtj3niha" d="M16.387 7.124c-1.557-2.57-3.289-4.794-4.183-5.892-.12-.147-.299-.232-.488-.232-.19 0-.37.085-.489.232-.894 1.098-2.626 3.323-4.183 5.894-2.007 3.313-3.025 6.052-3.025 8.14 0 4.244 3.453 7.696 7.697 7.696 4.243 0 7.696-3.452 7.696-7.696 0-2.09-1.018-4.83-3.025-8.142zm-3.615 13.004c-.45.115-.916.173-1.387.173-2.875 0-5.214-2.173-5.214-4.844 0-.645.17-1.398.505-2.24.057-.141.218-.222.377-.188.16.034.266.173.25.324-.02.18-.03.356-.03.523 0 2.907 2.342 5.341 5.448 5.662.155.016.276.131.288.275.012.145-.087.276-.237.315z"/>
    </defs>
    <g fill="none" fill-rule="evenodd">
        <g>
            <g>
                <g>
                    <g>
                        <g>
                            <g transform="translate(-1004 -782) translate(714 228) translate(24 36) translate(0 150) translate(242 352) translate(24 16)">
                                <mask id="th58ffkvjb" fill="#fff">
                                    <use xlink:href="#1twtj3niha"/>
                                </mask>
                                <g fill="#FFF" mask="url(#th58ffkvjb)">
                                    <path d="M0 0H24V24H0z"/>
                                </g>
                            </g>
                        </g>
                    </g>
                </g>
            </g>
        </g>
    </g>
</svg>
