<svg xmlns="http://www.w3.org/2000/svg" xmlns:xlink="http://www.w3.org/1999/xlink" width="24" height="24" viewBox="0 0 24 24">
    <defs>
        <path id="6w8m5cdfma" d="M19.167.833c-.305 0-.56.173-.706.417H17.5V.417c0-.23-.186-.417-.417-.417H11.25c-.23 0-.417.186-.417.417v.833H9.167V.417C9.167.187 8.98 0 8.75 0H2.917C2.687 0 2.5.186 2.5.417v.833h-.961C1.393 1.006 1.138.833.833.833c-.46 0-.833.374-.833.834 0 .46.374.833.833.833.305 0 .56-.172.706-.417H2.5v17.5c0 .23.186.417.417.417 1.567 0 2.358-.452 3.123-.888.701-.4 1.364-.779 2.71-.779.23 0 .417-.186.417-.416V2.083h1.666v15.834c0 .23.187.416.417.416 1.346 0 2.009.378 2.71.779.765.436 1.556.888 3.123.888.23 0 .417-.186.417-.417v-17.5h.961c.146.245.401.417.706.417.46 0 .833-.374.833-.833 0-.46-.374-.834-.833-.834zM7.083 2.083h-2.5c-.23 0-.416-.186-.416-.416 0-.23.186-.417.416-.417h2.5c.23 0 .417.186.417.417 0 .23-.186.416-.417.416zm8.334 0h-2.5c-.23 0-.417-.186-.417-.416 0-.23.186-.417.417-.417h2.5c.23 0 .416.186.416.417 0 .23-.186.416-.416.416z"/>
    </defs>
    <g fill="none" fill-rule="evenodd">
        <g>
            <g>
                <g>
                    <g>
                        <g>
                            <g>
                                <g>
                                    <g transform="translate(-1138 -1404) translate(778 222) translate(0 868) translate(336) translate(0 290) translate(16 14) translate(8 10) translate(2 2)">
                                        <mask id="t1c7hb126b" fill="#fff">
                                            <use xlink:href="#6w8m5cdfma"/>
                                        </mask>
                                        <g fill="#FFF" mask="url(#t1c7hb126b)">
                                            <path d="M0 0H24V24H0z" transform="translate(-2 -2)"/>
                                        </g>
                                    </g>
                                </g>
                            </g>
                        </g>
                    </g>
                </g>
            </g>
        </g>
    </g>
</svg>
