<svg xmlns="http://www.w3.org/2000/svg" xmlns:xlink="http://www.w3.org/1999/xlink" width="24" height="24" viewBox="0 0 24 24">
    <defs>
        <path id="v1y2iip89a" d="M12 1c2.025 0 3.667 1.642 3.667 3.667V13.4c1.125 1.008 1.833 2.471 1.833 4.1 0 3.038-2.462 5.5-5.5 5.5s-5.5-2.462-5.5-5.5c0-1.629.708-3.092 1.833-4.1V4.667C8.333 2.642 9.975 1 12 1zm0 1.833c-1.012 0-1.833.821-1.833 1.834v9.553l-.611.547c-.774.692-1.223 1.674-1.223 2.733 0 2.025 1.642 3.667 3.667 3.667s3.667-1.642 3.667-3.667c0-1.059-.449-2.04-1.223-2.733l-.61-.547V4.667c0-1.013-.821-1.834-1.834-1.834zm.917 5.5v6.574c1.068.377 1.833 1.396 1.833 2.593 0 1.519-1.231 2.75-2.75 2.75s-2.75-1.231-2.75-2.75c0-1.197.765-2.216 1.833-2.593V8.333h1.834z"/>
    </defs>
    <g fill="none" fill-rule="evenodd">
        <g>
            <g>
                <g>
                    <g>
                        <g>
                            <g transform="translate(-762 -782) translate(714 228) translate(24 36) translate(0 150) translate(0 352) translate(24 16)">
                                <mask id="7buedpjc9b" fill="#fff">
                                    <use xlink:href="#v1y2iip89a"/>
                                </mask>
                                <g fill="#FFF" mask="url(#7buedpjc9b)">
                                    <path d="M0 0H24V24H0z"/>
                                </g>
                            </g>
                        </g>
                    </g>
                </g>
            </g>
        </g>
    </g>
</svg>
