<svg xmlns="http://www.w3.org/2000/svg" xmlns:xlink="http://www.w3.org/1999/xlink" width="24" height="24" viewBox="0 0 24 24">
    <defs>
        <path id="kc6c4ub4sa" d="M13.57 8.152c.005.033.008.066.008.1v1.124l.932.638h1.347v6.446H14.45c-.274 0-.498.045-.75.15-.666.28-1.6.663-2.046.819-.217.076-.435.114-.654.114-.218 0-.437-.038-.654-.114-.348-.122-.94-.37-1.514-.608-.18-.076-.356-.15-.516-.215-.249-.103-.47-.146-.738-.146H6.146v-6.446H7.49l.932-.637V8.253c0-.035.003-.068.009-.1zm-8.713 1.862v6.446H.645c-.356 0-.645-.289-.645-.645v-5.156c0-.356.289-.645.645-.645h4.212zm16.498 0c.356 0 .645.289.645.645v5.156c0 .356-.289.645-.645.645h-4.209v-6.446zM12.29 3.867v2.996H9.711V3.867h2.578zM15.727 0c.712 0 1.289.577 1.289 1.29 0 .711-.577 1.288-1.29 1.288H6.274c-.712 0-1.289-.577-1.289-1.289S5.561 0 6.274 0z"/>
    </defs>
    <g fill="none" fill-rule="evenodd">
        <g>
            <g>
                <g>
                    <g>
                        <g>
                            <g>
                                <g transform="translate(-802 -592) translate(778 222) translate(0 56) translate(0 290) translate(16 14) translate(8 10) translate(1 3)">
                                    <mask id="qnvybewdub" fill="#fff">
                                        <use xlink:href="#kc6c4ub4sa"/>
                                    </mask>
                                    <g fill="#FFF" mask="url(#qnvybewdub)">
                                        <path d="M0 0H24V24H0z" transform="translate(-1 -3)"/>
                                    </g>
                                </g>
                            </g>
                        </g>
                    </g>
                </g>
            </g>
        </g>
    </g>
</svg>
