<svg width="36" height="36" viewBox="0 0 36 36" fill="none" xmlns="http://www.w3.org/2000/svg">
<mask id="mask0" mask-type="alpha" maskUnits="userSpaceOnUse" x="3" y="0" width="31" height="33">
<path fill-rule="evenodd" clip-rule="evenodd" d="M19.3375 0H17.4039V4.33061H19.3375V0ZM20.1172 31.0664H16.627V33H20.1172V31.0664ZM24.1053 5.71126L26.4286 2.05666L28.0604 3.09403L25.737 6.74863L24.1053 5.71126ZM32.9235 8.62281L29.0022 10.4603L29.8226 12.2111L33.7439 10.3736L32.9235 8.62281ZM8.68346 3.09486L10.3152 2.05749L12.6386 5.71209L11.0068 6.74946L8.68346 3.09486ZM3.8204 8.62379L3 10.3746L6.9213 12.212L7.7417 10.4612L3.8204 8.62379ZM24.5372 9.11427C22.8499 7.45073 20.617 6.55361 18.2438 6.58661C15.9632 6.6189 13.8104 7.52911 12.1818 9.14946C10.5532 10.77 9.63234 12.9183 9.58903 15.1986C9.54236 17.6524 10.4839 19.9466 12.24 21.6585C12.8773 22.2797 13.3892 23.0022 13.7547 23.7884H15.8278V20.2351L13.9378 18.321L15.3137 16.9624L17.7614 19.4413V23.7884H18.98V19.4413L21.4277 16.9624L22.8036 18.321L20.9136 20.2351V23.7884H22.9816C23.3418 23.0046 23.8446 22.2925 24.4694 21.6895C26.2007 20.0188 27.154 17.7742 27.154 15.369C27.1541 12.9994 26.2247 10.7781 24.5372 9.11427ZM22.5844 25.7219H14.1571V30.0332H22.5844V25.7219Z" fill="white"/>
</mask>
<g mask="url(#mask0)">
<rect width="36" height="36" fill="white"/>
</g>
</svg>
