<svg width="13" height="22" viewBox="0 0 13 22" fill="none" xmlns="http://www.w3.org/2000/svg">
<mask id="mask0" mask-type="alpha" maskUnits="userSpaceOnUse" x="0" y="0" width="13" height="22">
<path fill-rule="evenodd" clip-rule="evenodd" d="M6.47116 0C2.90291 0 0 2.90291 0 6.47116V15.5288C0 19.0971 2.90291 22 6.47116 22C10.0394 22 12.9423 19.0971 12.9423 15.5288V6.47116C12.9423 2.90291 10.0394 0 6.47116 0ZM11.6224 15.5288C11.6224 18.3691 9.31146 20.6801 6.47116 20.6801C3.63086 20.6801 1.31995 18.3691 1.31995 15.5288V6.47116C1.31995 3.63086 3.63086 1.31995 6.47116 1.31995C9.31146 1.31995 11.6224 3.63086 11.6224 6.47116V15.5288ZM5.81136 5.03641C5.81136 4.67184 6.10677 4.37643 6.47133 4.37643C6.83589 4.37643 7.1313 4.67184 7.1313 5.03641V8.0741C7.1313 8.43849 6.83572 8.73407 6.47133 8.73407C6.10677 8.73407 5.81136 8.43849 5.81136 8.0741V5.03641Z" fill="white"/>
</mask>
<g mask="url(#mask0)">
<rect x="-6" y="-1" width="24" height="24" fill="white"/>
</g>
</svg>
