<svg width="34" height="34" viewBox="0 0 34 34" fill="none" xmlns="http://www.w3.org/2000/svg">
<path fill-rule="evenodd" clip-rule="evenodd" d="M16.9671 6.1198C17.577 6.1198 18.0998 5.59703 18.0998 4.98713V1.63267C18.0998 1.02277 17.577 0.5 16.9671 0.5C16.3572 0.5 15.8344 1.02277 15.8344 1.63267V4.98713C15.8344 5.59703 16.3572 6.1198 16.9671 6.1198ZM22.8054 11.1297C21.3242 9.64846 19.2331 8.69005 16.9678 8.69005C14.7024 8.69005 12.6113 9.6049 11.1301 11.1297C9.64895 12.6108 8.69053 14.7019 8.69053 16.9673C8.69053 19.2326 9.64895 21.3237 11.1301 22.8049C12.6113 24.2861 14.7024 25.2445 16.9678 25.2445C19.2331 25.2445 21.3242 24.3297 22.8054 22.8049C24.2866 21.3237 25.245 19.2326 25.245 16.9673C25.245 14.7019 24.3301 12.6108 22.8054 11.1297ZM28.6433 6.90392L26.2472 9.29996C25.768 9.7356 25.071 9.7356 24.6789 9.29996C24.2432 8.86432 24.2432 8.16729 24.6789 7.73164L27.0749 5.3356C27.5106 4.89996 28.2076 4.89996 28.6433 5.3356C29.0789 5.77125 29.0789 6.46828 28.6433 6.90392ZM32.3025 15.8347H28.948C28.3381 15.8347 27.8154 16.3574 27.8154 16.9673C27.8154 17.5772 28.3381 18.1 28.948 18.1H32.3025C32.9124 18.1 33.4352 17.5772 33.4352 16.9673C33.4352 16.3574 32.9124 15.8347 32.3025 15.8347ZM24.6342 24.6347C25.0699 24.1991 25.7669 24.1991 26.2025 24.6347L28.5986 27.0308C29.0342 27.4664 29.0342 28.1634 28.5986 28.5991C28.1629 29.0347 27.4659 29.0347 27.0303 28.5991L24.6342 26.203C24.1986 25.7674 24.1986 25.0704 24.6342 24.6347ZM16.9671 27.8149C16.3572 27.8149 15.8344 28.3377 15.8344 28.9476V32.302C15.8344 32.9119 16.3572 33.4347 16.9671 33.4347C17.577 33.4347 18.0998 32.9119 18.0998 32.302V28.9476C18.0998 28.3377 17.577 27.8149 16.9671 27.8149ZM5.29191 27.0308L7.68795 24.6347C8.16716 24.1991 8.86419 24.1991 9.25627 24.6347C9.69191 25.0704 9.69191 25.7674 9.25627 26.203L6.86023 28.5991C6.42458 29.0347 5.72756 29.0347 5.29191 28.5991C4.85627 28.1634 4.85627 27.4664 5.29191 27.0308ZM6.1198 16.9673C6.1198 16.3574 5.59703 15.8347 4.98713 15.8347H1.63267C1.02277 15.8347 0.5 16.3574 0.5 16.9673C0.5 17.5772 1.02277 18.1 1.63267 18.1H4.98713C5.59703 18.1 6.1198 17.5772 6.1198 16.9673ZM9.25627 9.29996C8.82063 9.7356 8.1236 9.7356 7.68795 9.29996L5.29191 6.90392C4.85627 6.46828 4.85627 5.77125 5.29191 5.3356C5.72756 4.89996 6.42458 4.89996 6.86023 5.3356L9.25627 7.73164C9.69191 8.16729 9.69191 8.86432 9.25627 9.29996Z" fill="black"/>
<mask id="mask0" mask-type="alpha" maskUnits="userSpaceOnUse" x="0" y="0" width="34" height="34">
<path fill-rule="evenodd" clip-rule="evenodd" d="M16.9671 6.1198C17.577 6.1198 18.0998 5.59703 18.0998 4.98713V1.63267C18.0998 1.02277 17.577 0.5 16.9671 0.5C16.3572 0.5 15.8344 1.02277 15.8344 1.63267V4.98713C15.8344 5.59703 16.3572 6.1198 16.9671 6.1198ZM22.8054 11.1297C21.3242 9.64846 19.2331 8.69005 16.9678 8.69005C14.7024 8.69005 12.6113 9.6049 11.1301 11.1297C9.64895 12.6108 8.69053 14.7019 8.69053 16.9673C8.69053 19.2326 9.64895 21.3237 11.1301 22.8049C12.6113 24.2861 14.7024 25.2445 16.9678 25.2445C19.2331 25.2445 21.3242 24.3297 22.8054 22.8049C24.2866 21.3237 25.245 19.2326 25.245 16.9673C25.245 14.7019 24.3301 12.6108 22.8054 11.1297ZM28.6433 6.90392L26.2472 9.29996C25.768 9.7356 25.071 9.7356 24.6789 9.29996C24.2432 8.86432 24.2432 8.16729 24.6789 7.73164L27.0749 5.3356C27.5106 4.89996 28.2076 4.89996 28.6433 5.3356C29.0789 5.77125 29.0789 6.46828 28.6433 6.90392ZM32.3025 15.8347H28.948C28.3381 15.8347 27.8154 16.3574 27.8154 16.9673C27.8154 17.5772 28.3381 18.1 28.948 18.1H32.3025C32.9124 18.1 33.4352 17.5772 33.4352 16.9673C33.4352 16.3574 32.9124 15.8347 32.3025 15.8347ZM24.6342 24.6347C25.0699 24.1991 25.7669 24.1991 26.2025 24.6347L28.5986 27.0308C29.0342 27.4664 29.0342 28.1634 28.5986 28.5991C28.1629 29.0347 27.4659 29.0347 27.0303 28.5991L24.6342 26.203C24.1986 25.7674 24.1986 25.0704 24.6342 24.6347ZM16.9671 27.8149C16.3572 27.8149 15.8344 28.3377 15.8344 28.9476V32.302C15.8344 32.9119 16.3572 33.4347 16.9671 33.4347C17.577 33.4347 18.0998 32.9119 18.0998 32.302V28.9476C18.0998 28.3377 17.577 27.8149 16.9671 27.8149ZM5.29191 27.0308L7.68795 24.6347C8.16716 24.1991 8.86419 24.1991 9.25627 24.6347C9.69191 25.0704 9.69191 25.7674 9.25627 26.203L6.86023 28.5991C6.42458 29.0347 5.72756 29.0347 5.29191 28.5991C4.85627 28.1634 4.85627 27.4664 5.29191 27.0308ZM6.1198 16.9673C6.1198 16.3574 5.59703 15.8347 4.98713 15.8347H1.63267C1.02277 15.8347 0.5 16.3574 0.5 16.9673C0.5 17.5772 1.02277 18.1 1.63267 18.1H4.98713C5.59703 18.1 6.1198 17.5772 6.1198 16.9673ZM9.25627 9.29996C8.82063 9.7356 8.1236 9.7356 7.68795 9.29996L5.29191 6.90392C4.85627 6.46828 4.85627 5.77125 5.29191 5.3356C5.72756 4.89996 6.42458 4.89996 6.86023 5.3356L9.25627 7.73164C9.69191 8.16729 9.69191 8.86432 9.25627 9.29996Z" fill="white"/>
</mask>
<g mask="url(#mask0)">
<rect x="-1" y="-1" width="36" height="36" fill="white"/>
</g>
</svg>
