<svg width="30" height="30" viewBox="0 0 30 30" fill="none" xmlns="http://www.w3.org/2000/svg">
<path fill-rule="evenodd" clip-rule="evenodd" d="M0.878906 0H29.1211C29.6065 0 30 0.393516 30 0.878906V4.39688H0V0.878906C0 0.393516 0.393516 0 0.878906 0ZM21.9661 16.4861C22.5071 17.5352 23.0518 18.3556 23.5118 18.9634L30.0002 15.4907V6.15464H19.3766C19.6298 10.9831 20.8899 14.3993 21.9661 16.4861ZM22.3061 29.1212C22.3061 29.6066 22.6996 30.0001 23.185 30.0001H30.0003V17.5626L24.0534 20.6841C23.4334 22.7914 22.3061 26.9254 22.3061 29.1212ZM0 30V17.5423L5.94457 20.676C6.56402 22.781 7.69412 26.9226 7.69412 29.121C7.69412 29.6064 7.3006 30 6.81521 30H0ZM0 15.5558L6.48176 18.9721C6.94313 18.3634 7.49051 17.5403 8.03414 16.486C9.83965 12.9848 10.4624 9.17062 10.6229 6.15468H0V15.5558Z" fill="black"/>
<mask id="mask0" mask-type="alpha" maskUnits="userSpaceOnUse" x="0" y="0" width="31" height="30">
<path fill-rule="evenodd" clip-rule="evenodd" d="M0.878906 0H29.1211C29.6065 0 30 0.393516 30 0.878906V4.39688H0V0.878906C0 0.393516 0.393516 0 0.878906 0ZM21.9661 16.4861C22.5071 17.5352 23.0518 18.3556 23.5118 18.9634L30.0002 15.4907V6.15464H19.3766C19.6298 10.9831 20.8899 14.3993 21.9661 16.4861ZM22.3061 29.1212C22.3061 29.6066 22.6996 30.0001 23.185 30.0001H30.0003V17.5626L24.0534 20.6841C23.4334 22.7914 22.3061 26.9254 22.3061 29.1212ZM0 30V17.5423L5.94457 20.676C6.56402 22.781 7.69412 26.9226 7.69412 29.121C7.69412 29.6064 7.3006 30 6.81521 30H0ZM0 15.5558L6.48176 18.9721C6.94313 18.3634 7.49051 17.5403 8.03414 16.486C9.83965 12.9848 10.4624 9.17062 10.6229 6.15468H0V15.5558Z" fill="white"/>
</mask>
<g mask="url(#mask0)">
<rect x="-3" y="-3" width="36" height="36" fill="white"/>
</g>
</svg>
