<svg width="104" height="24" viewBox="0 0 104 24" fill="none" xmlns="http://www.w3.org/2000/svg">
<path fill-rule="evenodd" clip-rule="evenodd" d="M13.8062 0.559148C12.1017 0.55192 10.4283 0.775049 8.81832 1.32722C4.14934 2.92809 1.14351 5.95291 0.711336 10.9809C0.338989 15.3118 1.89044 18.9013 5.70047 21.1883C10.7224 24.2024 15.9944 24.275 21.1879 21.6128C24.835 19.7429 26.7553 16.622 26.9173 12.5497C27.0961 8.05661 25.2092 4.63016 21.2324 2.39164C18.9388 1.10032 16.4327 0.572347 13.8062 0.559148ZM13.7295 24C10.9658 23.9645 8.26967 23.3944 5.80199 21.9799C2.47251 20.071 0.501931 17.2414 0.0869388 13.4453C-0.247855 10.3831 0.362221 7.52236 2.30193 5.03399C3.94726 2.92338 6.13933 1.57737 8.69134 0.809933C12.7964 -0.424507 16.8626 -0.29283 20.7662 1.51578C25.4075 3.66662 27.7431 7.33443 27.5932 12.4171C27.4462 17.3973 24.8267 20.7483 20.2939 22.726C18.2311 23.626 16.0434 23.9786 13.7295 24ZM18.5129 11.9957H18.5164L18.5162 13.6183C18.516 15.0595 18.5159 16.5007 18.517 17.9419C18.5173 18.397 18.5838 18.4608 19.0501 18.4623L19.2886 18.4633H19.2888H19.289H19.2892C19.8066 18.4654 20.3242 18.4675 20.8418 18.4604C21.2441 18.4551 21.4239 18.2782 21.4245 17.8816C21.428 13.9674 21.4283 10.0535 21.4264 6.13962C21.4261 5.72447 21.2456 5.55225 20.8176 5.54754C20.3278 5.54201 19.838 5.54332 19.3482 5.54463L19.0638 5.54534C18.573 5.54659 18.5135 5.60442 18.5132 6.08713C18.5125 7.49417 18.5126 8.9012 18.5128 10.3082L18.5129 11.9957ZM14.6551 11.6151L14.6553 11.615C14.7255 11.5677 14.7846 11.5279 14.8432 11.4872C16.7743 10.1484 16.6355 7.31403 14.5794 6.16727C13.8324 5.75055 13.0168 5.55917 12.1667 5.55099C10.6034 5.53593 9.03999 5.5371 7.4764 5.53827L6.78648 5.53874C6.35208 5.53874 6.16081 5.72604 6.16081 6.16413C6.16113 10.0566 6.16559 13.9488 6.17259 17.8413C6.17354 18.2863 6.35367 18.4652 6.79444 18.4652C7.28657 18.4652 7.77881 18.4679 8.27105 18.4706C9.66167 18.4781 11.0523 18.4856 12.4408 18.435C13.2268 18.4064 14.0377 18.2379 14.7783 17.973C16.1038 17.4975 16.8399 16.5085 16.9096 15.0896C16.9818 13.6145 16.3479 12.5503 14.9864 11.9196C14.8489 11.8558 14.7111 11.7926 14.5211 11.7056C14.5708 11.6719 14.6147 11.6423 14.6551 11.6151ZM13.8649 1.216C16.0589 1.24208 18.236 1.63146 20.2699 2.6214C23.9542 4.41523 26.0559 7.30743 26.2644 11.3907C26.469 15.3982 24.902 18.578 21.4318 20.7647C20.0876 21.6119 18.6138 22.1565 17.0544 22.4658C13.686 23.1342 10.4021 22.8772 7.30459 21.3652C3.16549 19.3457 1.15545 15.995 1.3639 11.4441C1.56217 7.12327 3.85926 4.18016 7.79341 2.42687C9.69938 1.5774 11.7231 1.23957 13.8649 1.216ZM10.1443 13.1936C9.77252 13.1993 9.39807 13.2052 9.02022 13.2052C9.02022 13.4298 9.02088 13.6533 9.02154 13.876V13.8763V13.8766V13.8767V13.8767C9.02317 14.4265 9.02478 14.971 9.0164 15.5153C9.01131 15.8456 9.15579 15.9525 9.47754 15.9478C9.84458 15.9418 10.2119 15.9436 10.5792 15.9453H10.5793H10.5793H10.5794C11.0894 15.9477 11.5994 15.9501 12.1085 15.932C12.4948 15.9179 12.8929 15.8415 13.2583 15.7149C13.7465 15.5461 13.9855 15.1514 14.0129 14.6392C14.0552 13.8412 13.6217 13.2916 12.6705 13.2253C11.8366 13.1673 10.9975 13.1803 10.1443 13.1936ZM9.03102 10.1599L9.03102 10.1589V10.1589C9.02918 9.54411 9.02742 8.95473 9.04459 8.36607C9.04746 8.26676 9.21899 8.08794 9.31224 8.08826C9.49672 8.08856 9.68146 8.08766 9.86629 8.08676H9.86651C10.6337 8.083 11.4026 8.07924 12.1612 8.1618C13.0325 8.25639 13.4383 8.93081 13.2454 9.73439C13.1379 10.1822 12.8355 10.4695 12.4088 10.5757C11.9954 10.6784 11.561 10.7265 11.1339 10.7432C10.6583 10.7616 10.182 10.7577 9.68767 10.7536C9.47304 10.7519 9.25502 10.7501 9.03218 10.7501C9.03218 10.5503 9.0316 10.3539 9.03102 10.1599ZM45.2827 14.2977C45.2826 14.5124 45.2854 14.7273 45.2882 14.9422C45.2952 15.4775 45.3022 16.0128 45.2641 16.5449C45.244 16.8255 45.0917 17.1931 44.8755 17.3487C42.1928 19.2833 39.2862 19.7787 36.2195 18.4206C33.3876 17.1665 31.9326 13.9957 32.5341 10.6758C33.1957 7.02313 36.329 4.70473 40.262 4.94567C41.6602 5.03143 42.9502 5.4219 44.1027 6.2319C44.6526 6.61839 44.6837 6.8142 44.2849 7.31357C43.4507 8.3583 43.4427 8.35412 42.3483 7.77844L42.2245 7.71343C40.4619 6.78913 38.6329 6.6072 36.9422 7.8204C35.0994 9.14276 34.5415 11.0573 34.9714 13.2236C35.8021 17.4075 40.1085 17.8155 42.6835 16.2575C42.8334 16.1669 43.015 15.9775 43.0219 15.8268C43.0566 15.0798 43.0608 14.3289 43.0131 13.5834C43.0057 13.4701 42.6736 13.2978 42.4859 13.2898C41.6958 13.2563 40.9031 13.2568 40.1125 13.2811C39.6347 13.2957 39.48 13.1074 39.4858 12.638C39.4869 12.5483 39.4877 12.4646 39.4884 12.3865V12.3865C39.494 11.7727 39.4965 11.5029 39.6312 11.3876C39.7369 11.297 39.924 11.3015 40.2578 11.3096C40.4019 11.313 40.5732 11.3172 40.7772 11.3146C41.3569 11.3072 41.9368 11.3093 42.5167 11.3114C43.2202 11.3139 43.9237 11.3165 44.6269 11.3021C45.1417 11.2916 45.3056 11.4964 45.2898 11.9853C45.2724 12.5232 45.276 13.0618 45.2797 13.6004C45.2813 13.8328 45.2828 14.0653 45.2827 14.2977ZM68.2418 7.01028C70.9674 7.01813 73.026 9.20114 73.0171 12.0741C73.0081 14.9831 70.9782 17.0893 68.2037 17.0686C65.508 17.0484 63.4627 14.8315 63.4803 11.9492C63.4974 9.16206 65.5791 7.0027 68.2418 7.01028ZM75.4448 12.3214C75.4733 8.01777 72.5532 4.97757 68.3529 4.9381C64.2473 4.89953 61.0749 7.94744 61.0461 11.9582C61.017 16.0084 64.0622 19.1175 68.0955 19.1558C72.1817 19.1946 75.4191 16.1841 75.4448 12.3214ZM50.2559 10.2099C50.2578 10.0397 50.2597 9.86949 50.2597 9.69939C50.2601 9.55181 50.2607 9.40422 50.2613 9.25664C50.2633 8.78414 50.2653 8.31167 50.2589 7.83935C50.2538 7.45261 50.3987 7.22722 50.8145 7.23069C51.2012 7.23396 51.5884 7.22961 51.9756 7.22526H51.9757H51.9757H51.9758H51.9758C52.8071 7.21591 53.6382 7.20656 54.4635 7.27261C56.2787 7.41802 57.2283 8.83514 56.6784 10.447C56.3967 11.2723 55.7757 11.8249 54.9576 11.9035C53.7095 12.0231 52.4496 12.0283 51.1924 12.0334C51 12.0342 50.8078 12.035 50.6156 12.0362C50.498 12.037 50.2879 11.7319 50.276 11.5583C50.2458 11.1105 50.2509 10.6603 50.2559 10.2101V10.2099ZM47.9529 10.3531C47.9517 10.9053 47.9505 11.4574 47.9504 12.0096C47.9504 12.5363 47.95 13.063 47.9495 13.5898L47.9495 13.6047C47.9485 14.8507 47.9475 16.0968 47.9516 17.3428C47.9523 17.5619 47.9473 17.7511 47.943 17.9142C47.9315 18.351 47.9249 18.6022 48.0459 18.7462C48.2096 18.9413 48.6072 18.94 49.5432 18.9369L49.6059 18.9367C50.1174 18.9352 50.2741 18.738 50.2645 18.2521C50.2532 17.6838 50.2546 17.1152 50.2559 16.5466C50.2574 15.9585 50.2588 15.3703 50.2462 14.7825C50.2353 14.272 50.3862 14.0306 50.9379 14.0631C51.2067 14.079 51.4774 14.073 51.7477 14.067C52.0993 14.0591 52.4504 14.0513 52.7963 14.0918C53.1087 14.1283 53.4892 14.312 53.6774 14.5548C54.1714 15.1919 54.6351 15.8525 55.0989 16.5132L55.0989 16.5132C55.3361 16.8511 55.5733 17.189 55.8145 17.5237C56.8517 18.9631 56.8556 18.9648 58.6261 18.9288C58.7616 18.926 58.8961 18.8841 59.0308 18.8422C59.0935 18.8227 59.1562 18.8032 59.219 18.7876C59.1933 18.7218 59.1713 18.6535 59.1493 18.5852L59.1493 18.5851C59.1018 18.4375 59.0543 18.2898 58.9697 18.168C58.3734 17.3094 57.7691 16.4564 57.1647 15.6033L57.164 15.6024C56.8778 15.1984 56.5916 14.7944 56.3062 14.3898C55.8546 13.7494 55.8614 13.7329 56.5944 13.4146C59.09 12.3307 59.9849 9.41577 58.4955 7.12578C57.5645 5.69452 56.1104 5.22922 54.508 5.19027C53.3318 5.16166 52.155 5.16577 50.978 5.16988H50.978H50.9779H50.9779H50.9779H50.9778C50.2294 5.17249 49.481 5.17511 48.7328 5.16931C48.1653 5.16481 47.9335 5.37759 47.9409 5.96941C47.9591 7.43041 47.956 8.89176 47.9529 10.3531ZM89.4227 11.1105C89.4154 10.7012 89.4081 10.2919 89.4081 9.88308H89.4536L89.4535 8.74792C89.4534 7.99116 89.4533 7.23442 89.4536 6.47774V6.47666C89.4539 5.81279 89.4541 5.47863 89.2871 5.3117C89.1178 5.14253 88.7769 5.14513 88.0904 5.15037C87.1275 5.15783 87.1211 5.16554 87.123 6.10771C87.1241 6.68592 87.126 7.26414 87.128 7.84236C87.1338 9.5771 87.1395 11.3119 87.1236 13.0465C87.1186 13.596 87.0284 14.1554 86.8972 14.6906C86.5476 16.1165 85.5507 16.8366 84.1498 17.0076C82.724 17.1818 81.3879 16.9136 80.6592 15.5501C80.2722 14.8259 80.0568 13.9362 80.0231 13.1107C79.9632 11.6355 79.9723 10.1576 79.9813 8.6795C79.9855 7.99377 79.9897 7.30802 79.987 6.62251C79.9862 6.43413 79.9878 6.26995 79.9892 6.12688V6.12603C79.9941 5.60922 79.9964 5.36821 79.8774 5.25706C79.7734 5.15993 79.5768 5.16194 79.2084 5.16573C79.0132 5.16773 78.7697 5.17023 78.4661 5.15873C77.899 5.13713 77.6455 5.38411 77.6489 5.9569C77.655 6.93103 77.656 7.90519 77.6569 8.87933C77.6583 10.3251 77.6597 11.7707 77.678 13.2163C77.696 14.6523 77.9679 16.0337 78.8938 17.1967C80.112 18.7273 81.7967 19.1438 83.6429 19.1356C87.066 19.12 89.1594 17.2064 89.3936 13.7998C89.4548 12.9069 89.4388 12.0087 89.4227 11.1105ZM94.7179 9.90819H94.7152C94.7152 10.0882 94.7135 10.2684 94.7117 10.4486V10.4489C94.707 10.9328 94.7023 11.4167 94.7316 11.8984C94.742 12.0685 94.9536 12.3671 95.0737 12.3676C95.3327 12.3687 95.5928 12.3736 95.8531 12.3784C96.7712 12.3956 97.693 12.4129 98.5854 12.263C100.082 12.0114 100.778 10.9114 100.64 9.41397C100.529 8.20835 99.5688 7.34319 98.1649 7.26194C97.5733 7.22764 96.9798 7.22949 96.386 7.23135C96.0384 7.23244 95.6906 7.23352 95.3432 7.22735C94.9045 7.21964 94.7196 7.43924 94.7184 7.85272C94.7172 8.33665 94.7174 8.82057 94.7177 9.30449L94.7179 9.90819ZM92.3908 12.0994C92.3907 11.5407 92.3904 10.9819 92.3901 10.4231C92.3892 8.9692 92.3884 7.51527 92.3927 6.06147C92.3952 5.26484 92.4948 5.17471 93.2774 5.17509C93.7449 5.17528 94.2123 5.17411 94.6798 5.17293C95.7949 5.17011 96.91 5.1673 98.0248 5.18307C99.7268 5.20711 101.255 5.68707 102.271 7.15638C104.27 10.0454 102.466 13.8593 98.8678 14.3127C97.9305 14.4307 96.9763 14.4295 96.0254 14.4283C95.8206 14.4281 95.6161 14.4278 95.4118 14.4288C94.8947 14.4312 94.6876 14.5955 94.7039 15.1339C94.7201 15.6679 94.7161 16.2026 94.7122 16.7374C94.7085 17.2306 94.7049 17.7237 94.717 18.2165C94.7298 18.73 94.5737 18.9384 94.0261 18.9401L93.9678 18.9403C93.1828 18.9426 92.7868 18.9438 92.5877 18.7464C92.3851 18.5455 92.3865 18.1386 92.3895 17.3176L92.3895 17.3023C92.3938 16.0996 92.3927 14.8969 92.3917 13.6942C92.3912 13.1626 92.3908 12.631 92.3908 12.0994Z" fill="white"/>
</svg>
